<?xml version="1.0" encoding="UTF-8" standalone="no"?>
<!-- Created with Inkscape (http://www.inkscape.org/) -->
<svg xmlns:svg="http://www.w3.org/2000/svg" xmlns="http://www.w3.org/2000/svg" version="1.0" width="270.65799" height="117.357" viewBox="0 0 270.658 117.357" id="Layer_1" xml:space="preserve"><defs id="defs275"/><g id="g236">
	<path d="M 0,31.139 C 4.08,29.879 4.5,26.759 4.5,21.539 L 4.5,10.32 C 4.5,5.46 7.8,2.22 9.6,2.22 L 13.979,2.22 L 13.979,6.66 L 11.58,6.66 C 9.42,6.66 9.42,8.46 9.42,11.22 L 9.42,22.559 C 9.42,29.579 5.64,32.579 4.86,33.059 C 5.64,33.539 9.42,36.539 9.42,43.619 L 9.42,54.899 C 9.42,57.659 9.42,59.458 11.58,59.458 L 13.979,59.458 L 13.979,63.898 L 9.6,63.898 C 7.8,63.898 4.5,60.659 4.5,55.798 L 4.5,44.638 C 4.5,39.358 4.08,36.239 0,34.978 L 0,31.139 z" id="path238"/>
	<path d="M 44.82,24.719 L 44.94,24.719 C 46.92,22.019 49.5,20.519 52.98,20.519 C 60.78,20.519 62.58,26.159 62.58,32.759 L 62.58,49.498 L 57.78,49.498 L 57.78,33.599 C 57.78,29.039 57.42,24.959 51.841,24.959 C 45.241,24.959 44.821,31.079 44.821,36.119 L 44.821,49.498 L 40.021,49.498 L 40.021,21.299 L 44.821,21.299 L 44.821,24.719 L 44.82,24.719 z" id="path240"/>
	<path d="M 69.18,35.458 C 69.18,27.178 75.72,20.519 83.999,20.519 C 92.278,20.519 98.818,27.179 98.818,35.458 C 98.818,43.737 92.219,50.278 84,50.278 C 75.781,50.278 69.18,43.738 69.18,35.458 z M 73.98,35.398 C 73.98,41.158 78.06,45.838 84,45.838 C 89.939,45.838 94.02,41.158 94.02,35.398 C 94.02,29.698 89.94,24.959 84,24.959 C 78.06,24.959 73.98,29.699 73.98,35.398 z" id="path242"/>
	<path d="M 128.58,49.498 L 123.78,49.498 L 123.78,0 L 128.58,0 L 128.58,49.498 z" id="path244"/>
	<path d="M 135,35.458 C 135,27.178 141.539,20.519 149.819,20.519 C 158.099,20.519 164.638,27.179 164.638,35.458 C 164.638,43.737 158.038,50.277 149.819,50.277 C 141.6,50.277 135,43.738 135,35.458 z M 139.799,35.398 C 139.799,41.158 143.878,45.838 149.819,45.838 C 155.758,45.838 159.839,41.158 159.839,35.398 C 159.839,29.698 155.759,24.959 149.819,24.959 C 143.878,24.959 139.799,29.699 139.799,35.398 z" id="path246"/>
	<path d="M 196.678,48.118 C 196.678,52.618 196.678,56.517 193.798,60.238 C 191.157,63.597 187.078,65.217 182.878,65.217 C 175.019,65.217 169.198,60.238 169.019,52.258 L 173.819,52.258 C 173.879,57.478 177.659,60.778 182.818,60.778 C 190.258,60.778 191.879,55.319 191.879,48.959 L 191.879,45.599 L 191.759,45.599 C 189.479,48.539 185.759,50.279 181.979,50.279 C 173.76,50.279 168.54,43.38 168.54,35.52 C 168.54,27.601 173.82,20.52 182.16,20.52 C 186.059,20.52 189.479,22.26 191.76,25.32 L 191.88,25.32 L 191.88,21.3 L 196.68,21.3 L 196.68,48.118 L 196.678,48.118 z M 173.458,35.099 C 173.458,40.619 176.698,45.839 182.698,45.839 C 188.878,45.839 192.118,40.859 192.118,35.159 C 192.118,29.519 188.577,24.959 182.638,24.959 C 177.058,24.959 173.458,29.819 173.458,35.099 z" id="path248"/>
	<path d="M 203.519,35.458 C 203.519,27.178 210.058,20.519 218.337,20.519 C 226.617,20.519 233.157,27.179 233.157,35.458 C 233.157,43.737 226.557,50.277 218.337,50.277 C 210.119,50.278 203.519,43.738 203.519,35.458 z M 208.318,35.398 C 208.318,41.158 212.398,45.838 218.338,45.838 C 224.278,45.838 228.358,41.158 228.358,35.398 C 228.358,29.698 224.279,24.959 218.338,24.959 C 212.398,24.959 208.318,29.699 208.318,35.398 z" id="path250"/>
	<path d="M 270.658,34.979 C 266.578,36.239 266.158,39.359 266.158,44.639 L 266.158,55.799 C 266.158,60.659 262.858,63.899 261.058,63.899 L 256.678,63.899 L 256.678,59.459 L 259.077,59.459 C 261.237,59.459 261.237,57.66 261.237,54.9 L 261.237,43.62 C 261.237,36.54 265.016,33.54 265.798,33.06 C 265.017,32.58 261.237,29.581 261.237,22.56 L 261.237,11.22 C 261.237,8.46 261.237,6.66 259.077,6.66 L 256.678,6.66 L 256.678,2.22 L 261.058,2.22 C 262.858,2.22 266.158,5.46 266.158,10.32 L 266.158,21.539 C 266.158,26.759 266.578,29.879 270.658,31.139 L 270.658,34.979 z" id="path252"/>
	<path d="M 65.054,99.599 L 64.994,99.599 C 63.884,98.189 62.504,97.229 60.614,97.229 C 57.704,97.229 55.635,99.629 55.635,102.449 C 55.635,105.239 57.555,107.669 60.494,107.669 C 62.504,107.669 63.914,106.769 65.084,105.239 L 65.144,105.239 L 65.144,108.449 C 63.764,109.379 62.354,109.889 60.674,109.889 C 56.414,109.889 53.174,106.708 53.174,102.449 C 53.174,98.249 56.564,95.01 60.704,95.01 C 62.234,95.01 63.794,95.52 65.054,96.419 L 65.054,99.599 z" id="path254"/>
	<path d="M 67.604,102.479 C 67.604,98.338 70.874,95.009 75.014,95.009 C 79.154,95.009 82.424,98.338 82.424,102.479 C 82.424,106.619 79.124,109.889 75.014,109.889 C 70.904,109.889 67.604,106.618 67.604,102.479 z M 70.004,102.448 C 70.004,105.328 72.044,107.668 75.014,107.668 C 77.984,107.668 80.024,105.328 80.024,102.448 C 80.024,99.598 77.984,97.228 75.014,97.228 C 72.044,97.228 70.004,99.599 70.004,102.448 z" id="path256"/>
	<path d="M 88.124,96.929 L 88.184,96.929 C 88.934,95.759 90.134,95.009 91.574,95.009 C 93.224,95.009 94.724,95.879 95.473,97.349 C 96.313,95.789 97.993,95.009 99.703,95.009 C 103.303,95.009 104.203,97.949 104.203,100.918 L 104.203,109.498 L 101.803,109.498 L 101.803,101.309 C 101.803,99.479 101.683,97.229 99.223,97.229 C 96.463,97.229 96.163,99.899 96.163,102.029 L 96.163,109.499 L 93.764,109.499 L 93.764,101.489 C 93.764,99.749 93.554,97.229 91.244,97.229 C 88.424,97.229 88.124,100.079 88.124,102.209 L 88.124,109.498 L 85.724,109.498 L 85.724,95.398 L 88.124,95.398 L 88.124,96.929 z" id="path258"/>
	<path d="M 112.124,90.089 C 112.124,91.049 111.344,91.799 110.414,91.799 C 109.484,91.799 108.704,91.049 108.704,90.089 C 108.704,89.158 109.484,88.379 110.414,88.379 C 111.344,88.379 112.124,89.158 112.124,90.089 z M 111.614,109.498 L 109.214,109.498 L 109.214,95.398 L 111.614,95.398 L 111.614,109.498 z" id="path260"/>
	<path d="M 119.023,97.108 L 119.083,97.108 C 120.073,95.758 121.363,95.008 123.103,95.008 C 127.003,95.008 127.903,97.827 127.903,101.128 L 127.903,109.497 L 125.503,109.497 L 125.503,101.548 C 125.503,99.268 125.323,97.228 122.533,97.228 C 119.233,97.228 119.023,100.289 119.023,102.808 L 119.023,109.497 L 116.623,109.497 L 116.623,95.397 L 119.023,95.397 L 119.023,97.108 L 119.023,97.108 z" id="path262"/>
	<path d="M 145.183,108.809 C 145.183,111.059 145.183,113.008 143.744,114.868 C 142.424,116.549 140.384,117.358 138.283,117.358 C 134.354,117.358 131.444,114.868 131.354,110.879 L 133.754,110.879 C 133.784,113.489 135.674,115.139 138.254,115.139 C 141.974,115.139 142.783,112.41 142.783,109.23 L 142.783,107.55 L 142.723,107.55 C 141.583,109.019 139.723,109.89 137.833,109.89 C 133.723,109.89 131.113,106.439 131.113,102.509 C 131.113,98.55 133.753,95.01 137.923,95.01 C 139.872,95.01 141.583,95.88 142.723,97.409 L 142.783,97.409 L 142.783,95.399 L 145.183,95.399 L 145.183,108.809 L 145.183,108.809 z M 133.573,102.299 C 133.573,105.059 135.193,107.668 138.193,107.668 C 141.283,107.668 142.903,105.178 142.903,102.328 C 142.903,99.508 141.133,97.228 138.164,97.228 C 135.374,97.229 133.573,99.658 133.573,102.299 z" id="path264"/>
	<path d="M 164.802,98.668 C 164.472,97.918 163.752,97.229 162.882,97.229 C 162.042,97.229 161.142,97.889 161.142,98.79 C 161.142,100.079 162.763,100.56 164.413,101.249 C 166.062,101.939 167.683,102.929 167.683,105.3 C 167.683,107.97 165.524,109.89 162.913,109.89 C 160.543,109.89 158.684,108.539 157.934,106.32 L 160.063,105.42 C 160.664,106.74 161.354,107.67 162.944,107.67 C 164.233,107.67 165.223,106.801 165.223,105.51 C 165.223,102.361 158.864,103.441 158.864,99 C 158.864,96.631 160.784,95.011 163.063,95.011 C 164.684,95.011 166.183,96.151 166.813,97.621 L 164.802,98.668 z" id="path266"/>
	<path d="M 169.812,102.479 C 169.812,98.338 173.083,95.009 177.222,95.009 C 181.361,95.009 184.632,98.338 184.632,102.479 C 184.632,106.619 181.331,109.889 177.222,109.889 C 173.113,109.889 169.812,106.618 169.812,102.479 z M 172.212,102.448 C 172.212,105.328 174.252,107.668 177.222,107.668 C 180.192,107.668 182.232,105.328 182.232,102.448 C 182.232,99.598 180.192,97.228 177.222,97.228 C 174.252,97.228 172.212,99.599 172.212,102.448 z" id="path268"/>
	<path d="M 186.672,102.479 C 186.672,98.338 189.943,95.009 194.081,95.009 C 198.222,95.009 201.491,98.338 201.491,102.479 C 201.491,106.619 198.191,109.889 194.081,109.889 C 189.972,109.889 186.672,106.618 186.672,102.479 z M 189.072,102.448 C 189.072,105.328 191.113,107.668 194.082,107.668 C 197.053,107.668 199.092,105.328 199.092,102.448 C 199.092,99.598 197.053,97.228 194.082,97.228 C 191.113,97.229 189.072,99.599 189.072,102.448 z" id="path270"/>
	<path d="M 207.192,97.108 L 207.252,97.108 C 208.242,95.758 209.532,95.008 211.273,95.008 C 215.172,95.008 216.073,97.827 216.073,101.128 L 216.073,109.497 L 213.673,109.497 L 213.673,101.548 C 213.673,99.268 213.493,97.228 210.703,97.228 C 207.403,97.228 207.193,100.289 207.193,102.808 L 207.193,109.497 L 204.794,109.497 L 204.794,95.397 L 207.193,95.397 L 207.193,97.108 L 207.192,97.108 z" id="path272"/>
</g>
</svg>