<svg data-name="Layer 1" xmlns="http://www.w3.org/2000/svg" viewBox="0 0 145 145"><path d="M85.1 17.69c8.4-6 17.3-7.06 26.12-1.52 10 6.26 12.89 15.87 10.42 27.46a26.74 26.74 0 0 1 14 9c6.8 8.55 8.57 18.18 4.64 28.45s-11.53 16.13-22.19 17.64a32.14 32.14 0 0 1-4.39.27Q72 99 30.36 99C17.09 99 6.22 90 3.34 76.64 0 61.06 10.72 45.2 26.08 43.12L29 42.7c-1.8-17.06 4.13-30.05 20-36.26C63.33.86 75.45 5.76 85.1 17.69z" fill="#fff"/><path d="M60.49 4.14c9.42 0 17.65 5 24.61 13.55 4.68-3.31 9.51-5.13 14.4-5.13a21.77 21.77 0 0 1 11.72 3.61c10 6.26 12.89 15.87 10.42 27.46a26.74 26.74 0 0 1 14 9c6.8 8.55 8.57 18.18 4.64 28.45s-11.53 16.13-22.19 17.64a32.14 32.14 0 0 1-4.39.27L63.88 99H30.36C17.09 99 6.22 90 3.34 76.64 0 61.06 10.72 45.2 26.08 43.12L29 42.7c-1.8-17.06 4.13-30.05 20-36.26a31.45 31.45 0 0 1 11.47-2.3m0-2.72A34.31 34.31 0 0 0 48 3.91C32.52 10 25 22.54 26.09 40.38h-.38a29.48 29.48 0 0 0-20 12.46 31 31 0 0 0-5 24.32c3.18 14.66 15.1 24.51 29.68 24.53h83.31a34.47 34.47 0 0 0 4.76-.3c11.71-1.66 20.13-8.35 24.35-19.36s2.44-21.69-5.05-31.11a29 29 0 0 0-13-9.18c1.86-12.15-2.28-21.77-12.08-27.92a24.63 24.63 0 0 0-13.17-4 26.41 26.41 0 0 0-13.88 4.24C78.18 5.68 69.74 1.42 60.49 1.42z" fill="#033b55"/><path fill="#1da3a9" d="M71 107.06h8.36v8.36H71z"/><path d="M79.35 116.77H71a1.36 1.36 0 0 1-1.36-1.36v-8.35A1.36 1.36 0 0 1 71 105.7h8.35a1.36 1.36 0 0 1 1.36 1.36v8.35a1.36 1.36 0 0 1-1.36 1.36zm-7-2.72H78v-5.63h-5.65z" fill="#033b55"/><rect x="31.42" y="115.41" width="87.51" height="26.8" rx="7.13" ry="7.13" fill="#68c8d0"/><path d="M112.46 143.58H37.88a7.83 7.83 0 0 1-7.82-7.83v-13.87a7.83 7.83 0 0 1 7.82-7.83h74.58a7.84 7.84 0 0 1 7.83 7.83v13.87a7.84 7.84 0 0 1-7.83 7.83zm-74.58-26.81a5.11 5.11 0 0 0-5.1 5.11v13.87a5.11 5.11 0 0 0 5.1 5.11h74.58a5.11 5.11 0 0 0 5.11-5.11v-13.87a5.11 5.11 0 0 0-5.11-5.11z" fill="#033b55"/><path d="M111.62 130.33a4.44 4.44 0 1 1-2.58-5.9 4.54 4.54 0 0 1 2.58 5.9z" fill="#ef502a"/><path d="M107.6 124.17a4 4 0 0 1 1.44.26 4.55 4.55 0 0 1 2.58 5.9 4.66 4.66 0 0 1-4.32 3.14 4.3 4.3 0 0 1-1.44-.26 4.56 4.56 0 0 1-2.58-5.9 4.67 4.67 0 0 1 4.32-3.14m0-1.36a6.15 6.15 0 0 0-5.46 8.59 5.64 5.64 0 0 0 5.16 3.43 6.15 6.15 0 0 0 5.47-8.59 5.64 5.64 0 0 0-5.17-3.43z" fill="#033b55"/><path d="M111.46 129.66a4.1 4.1 0 1 1-2.46-5.25 4.1 4.1 0 0 1 2.46 5.25z" fill="#ef502a"/><path d="M107.61 132.71a4.45 4.45 0 0 1-4.18-6 4.44 4.44 0 0 1 8.35 3 4.44 4.44 0 0 1-4.17 2.93zm0-8.21a3.76 3.76 0 1 0 3.54 5 3.78 3.78 0 0 0-3.54-5z" fill="#033b55"/><rect x="39.45" y="125.85" width="57.42" height="5.94" rx="2.97" ry="2.97" fill="#1da3a9"/><path d="M93.9 132.24H42.42a3.43 3.43 0 0 1 0-6.85H93.9a3.43 3.43 0 0 1 0 6.85zm-51.48-5.94a2.52 2.52 0 0 0 0 5H93.9a2.52 2.52 0 1 0 0-5z" fill="#033b55"/><rect x="31.42" y="51.09" width="87.51" height="26.8" rx="7.25" ry="7.25" fill="#68c8d0"/><path d="M112.35 79.25H38a8 8 0 0 1-7.94-7.94V57.66A7.94 7.94 0 0 1 38 49.73h74.35a7.94 7.94 0 0 1 7.94 7.93v13.65a8 8 0 0 1-7.94 7.94zM38 52.44a5.22 5.22 0 0 0-5.22 5.22v13.65A5.22 5.22 0 0 0 38 76.53h74.35a5.22 5.22 0 0 0 5.22-5.22V57.66a5.22 5.22 0 0 0-5.22-5.22z" fill="#033b55"/><path d="M111.62 66a4.44 4.44 0 1 1-2.62-5.9 4.54 4.54 0 0 1 2.62 5.9z" fill="#ef502a"/><path d="M107.6 59.85a4.24 4.24 0 0 1 1.44.25 4.55 4.55 0 0 1 2.58 5.9 4.65 4.65 0 0 1-4.32 3.14 4.06 4.06 0 0 1-1.44-.26 4.56 4.56 0 0 1-2.58-5.9 4.67 4.67 0 0 1 4.32-3.13m0-1.36a6 6 0 0 0-5.59 4 6.09 6.09 0 0 0 .13 4.56 5.65 5.65 0 0 0 5.16 3.42 6.15 6.15 0 0 0 5.47-8.59 5.59 5.59 0 0 0-5.17-3.42z" fill="#033b55"/><path d="M111.46 65.33a4.1 4.1 0 1 1-2.46-5.25 4.1 4.1 0 0 1 2.46 5.25z" fill="#ef502a"/><path d="M107.61 68.38a4.45 4.45 0 0 1-4.18-5.95 4.44 4.44 0 0 1 8.35 3 4.44 4.44 0 0 1-4.17 2.93zm0-8.2a3.76 3.76 0 1 0 3.54 5 3.78 3.78 0 0 0-.13-2.88 3.75 3.75 0 0 0-3.41-2.16z" fill="#033b55"/><rect x="39.45" y="61.52" width="57.42" height="5.94" rx="2.97" ry="2.97" fill="#1da3a9"/><path d="M93.9 67.91H42.42a3.43 3.43 0 0 1 0-6.85H93.9a3.43 3.43 0 0 1 0 6.85zM42.42 62a2.52 2.52 0 0 0 0 5H93.9a2.52 2.52 0 1 0 0-5z" fill="#033b55"/><path fill="#1da3a9" d="M71 77.89h8.36v8.36H71z"/><path d="M79.35 87.61H71a1.36 1.36 0 0 1-1.36-1.36v-8.36A1.36 1.36 0 0 1 71 76.53h8.35a1.36 1.36 0 0 1 1.36 1.36v8.36a1.36 1.36 0 0 1-1.36 1.36zm-7-2.72H78v-5.64h-5.65z" fill="#033b55"/><rect x="31.42" y="83.49" width="87.51" height="26.8" rx="7.22" ry="7.22" fill="#68c8d0"/><path d="M112.39 111.65H38a7.9 7.9 0 0 1-7.9-7.9V90a7.9 7.9 0 0 1 7.9-7.9h74.43a7.91 7.91 0 0 1 7.9 7.9v13.72a7.91 7.91 0 0 1-7.94 7.93zM38 84.85A5.18 5.18 0 0 0 32.78 90v13.72a5.18 5.18 0 0 0 5.22 5.21h74.43a5.19 5.19 0 0 0 5.18-5.18V90a5.19 5.19 0 0 0-5.18-5.18z" fill="#033b55"/><path d="M111.62 98.4a4.44 4.44 0 1 1-2.62-5.9 4.56 4.56 0 0 1 2.62 5.9z" fill="#ef502a"/><path d="M107.6 92.25a4.24 4.24 0 0 1 1.44.25 4.55 4.55 0 0 1 2.58 5.9 4.65 4.65 0 0 1-4.32 3.14 4.28 4.28 0 0 1-1.44-.25 4.57 4.57 0 0 1-2.58-5.9 4.67 4.67 0 0 1 4.32-3.14m0-1.36a6 6 0 0 0-5.59 4 5.92 5.92 0 0 0 3.39 7.65 5.59 5.59 0 0 0 1.9.33 6 6 0 0 0 5.6-4 6.09 6.09 0 0 0-.13-4.56 5.59 5.59 0 0 0-5.17-3.42z" fill="#033b55"/><path d="M111.46 97.74a4.1 4.1 0 1 1-2.46-5.25 4.1 4.1 0 0 1 2.46 5.25z" fill="#ef502a"/><path d="M107.61 100.78a4.44 4.44 0 0 1-1.89-8.46 4.44 4.44 0 0 1 3.77 8 4.44 4.44 0 0 1-1.88.46zm0-8.2a3.78 3.78 0 0 0-3.53 2.48 3.76 3.76 0 1 0 7.07 2.56 3.75 3.75 0 0 0-2.26-4.81 3.53 3.53 0 0 0-1.29-.23z" fill="#033b55"/><rect x="39.45" y="93.92" width="57.42" height="5.94" rx="2.97" ry="2.97" fill="#1da3a9"/><path d="M93.9 100.31H42.42a3.42 3.42 0 0 1 0-6.84H93.9a3.42 3.42 0 0 1 0 6.84zm-51.48-5.93a2.52 2.52 0 0 0 0 5H93.9a2.52 2.52 0 1 0 0-5z" fill="#033b55"/><path d="M81.85 20.15a26.22 26.22 0 0 1 3.25-2.46c-7.69-8.9-18-14.76-28.57-13.26 8.92.66 18.63 7.11 25.32 15.72zM135.6 52.65a26.74 26.74 0 0 0-14-9c2.47-11.59-.43-21.2-10.42-27.46-5.88-3.7-11.81-4.42-17.59-2.73a21.55 21.55 0 0 1 13.3 3.82c10.29 6.72 13.28 17 10.74 29.47a27.55 27.55 0 0 1 14.4 9.68c6.55 8.58 8.57 18.18 5.49 28.39.1.41.21.82.3 1.24a33.23 33.23 0 0 0 2.38-4.94c3.97-10.29 2.2-19.92-4.6-28.47z" fill="#e6f4f4"/></svg>