<svg data-name="Layer 1" xmlns="http://www.w3.org/2000/svg" viewBox="0 0 145 145"><path d="M83 26.77c7-5 14.44-5.89 21.79-1.27 8.35 5.22 10.76 13.24 8.7 22.91a22.33 22.33 0 0 1 11.68 7.51c5.67 7.13 7.15 15.17 3.87 23.74s-9.62 13.46-18.51 14.72a26.49 26.49 0 0 1-3.67.22H37.35C26.27 94.61 17.2 87.1 14.8 76 12 63 21 49.72 33.77 48l2.44-.36c-1.5-14.24 3.45-25.08 16.69-30.26 11.96-4.66 22.1-.57 30.1 9.39z" fill="#fff"/><path d="M62.49 15.46c7.86 0 14.72 4.17 20.53 11.31a20.81 20.81 0 0 1 12-4.28 18.08 18.08 0 0 1 9.77 3c8.35 5.22 10.76 13.24 8.7 22.91a22.33 22.33 0 0 1 11.68 7.51c5.67 7.13 7.15 15.17 3.87 23.74s-9.62 13.46-18.51 14.72a26.49 26.49 0 0 1-3.67.22H37.35C26.27 94.61 17.2 87.1 14.8 76 12 63 21 49.72 33.77 48l2.44-.36c-1.5-14.24 3.45-25.08 16.69-30.26a26.39 26.39 0 0 1 9.57-1.92m0-2.27a28.58 28.58 0 0 0-10.41 2.08C39.15 20.35 32.87 30.81 33.78 45.7h-.31a24.55 24.55 0 0 0-16.69 10.4 25.83 25.83 0 0 0-4.17 20.29c2.65 12.23 12.59 20.45 24.76 20.47h69.51a31.16 31.16 0 0 0 4-.25c9.77-1.39 16.79-7 20.31-16.16s2-18.1-4.21-26a24.3 24.3 0 0 0-10.85-7.66c1.55-10.13-1.9-18.16-10.08-23.29A20.53 20.53 0 0 0 95 20.2a22 22 0 0 0-11.58 3.54c-6.21-7-13.26-10.55-21-10.55z" fill="#033b55"/><path d="M71.26 101.34h7v7h-7z" fill="#1da3a9"/><path d="M78.22 109.44h-7a1.14 1.14 0 0 1-1.14-1.14v-7a1.14 1.14 0 0 1 1.14-1.14h7a1.14 1.14 0 0 1 1.14 1.14v7a1.14 1.14 0 0 1-1.14 1.14zm-5.84-2.27h4.72v-4.7h-4.72z" fill="#033b55"/><rect x="38.23" y="108.3" width="73.02" height="22.36" rx="5.95" ry="5.95" fill="#68c8d0"/><path d="M105.85 131.81H43.62a6.54 6.54 0 0 1-6.53-6.53V113.7a6.53 6.53 0 0 1 6.53-6.53h62.23a6.53 6.53 0 0 1 6.53 6.53v11.58a6.54 6.54 0 0 1-6.53 6.53zm-62.23-22.37a4.26 4.26 0 0 0-4.26 4.26v11.58a4.26 4.26 0 0 0 4.26 4.26h62.23a4.26 4.26 0 0 0 4.26-4.26V113.7a4.26 4.26 0 0 0-4.26-4.26H43.62z" fill="#033b55"/><path d="M105.15 120.75a3.71 3.71 0 1 1-2.15-4.92 3.79 3.79 0 0 1 2.16 4.9z" fill="#ef502a"/><path d="M101.79 115.61a3.36 3.36 0 0 1 1.21.22 3.8 3.8 0 0 1 2.15 4.92 3.88 3.88 0 0 1-3.61 2.62 3.53 3.53 0 0 1-1.2-.21 3.81 3.81 0 0 1-2.15-4.93 3.9 3.9 0 0 1 3.6-2.62m0-1.13a5.13 5.13 0 0 0-4.55 7.17 4.71 4.71 0 0 0 4.3 2.86 5.13 5.13 0 0 0 4.57-7.17 4.72 4.72 0 0 0-4.32-2.86z" fill="#033b55"/><path d="M105 120.19a3.42 3.42 0 1 1-2.06-4.38 3.43 3.43 0 0 1 2.06 4.38z" fill="#ef502a"/><path d="M101.8 122.74a3.72 3.72 0 0 1-3.72-3.74 3.87 3.87 0 0 1 .23-1.3 3.7 3.7 0 1 1 3.49 5zm0-6.85a3.16 3.16 0 1 0 1 .17 3 3 0 0 0-1-.17z" fill="#033b55"/><path d="M47.41 117h43a2.47 2.47 0 0 1 2.48 2.47 2.48 2.48 0 0 1-2.53 2.53H47.41a2.48 2.48 0 0 1-2.48-2.48 2.47 2.47 0 0 1 2.48-2.52z" fill="#1da3a9"/><path d="M90.36 122.35H47.41a2.86 2.86 0 0 1 0-5.72h43a2.86 2.86 0 0 1 0 5.72zm-42.95-5a2.1 2.1 0 0 0 0 4.17h43a2.1 2.1 0 1 0 .53-4.17 2.35 2.35 0 0 0-.53 0z" fill="#033b55"/><rect x="38.23" y="54.64" width="73.02" height="22.36" rx="6.05" ry="6.05" fill="#68c8d0"/><path d="M105.76 78.13h-62a6.68 6.68 0 0 1-6.63-6.62V60.12a6.63 6.63 0 0 1 6.63-6.62h62a6.62 6.62 0 0 1 6.62 6.62v11.39a6.67 6.67 0 0 1-6.62 6.62zm-62-22.37a4.36 4.36 0 0 0-4.36 4.36v11.39a4.36 4.36 0 0 0 4.36 4.35h62a4.35 4.35 0 0 0 4.35-4.35V60.12a4.36 4.36 0 0 0-4.35-4.36h-62z" fill="#033b55"/><path d="M105.15 67.08a3.71 3.71 0 1 1-2.15-4.93 3.79 3.79 0 0 1 2.2 4.89z" fill="#ef502a"/><path d="M101.79 61.94a3.58 3.58 0 0 1 1.21.21 3.81 3.81 0 0 1 2.15 4.92 3.89 3.89 0 0 1-3.61 2.62 3.54 3.54 0 0 1-1.2-.22 3.81 3.81 0 0 1-2.15-4.92 3.91 3.91 0 0 1 3.6-2.62m0-1.13a5.1 5.1 0 0 0-4.55 7.2 4.71 4.71 0 0 0 4.3 2.86 5.13 5.13 0 0 0 4.57-7.17 4.65 4.65 0 0 0-4.32-2.85z" fill="#033b55"/><path d="M105 66.52a3.42 3.42 0 1 1-2-4.38 3.42 3.42 0 0 1 2 4.38z" fill="#ef502a"/><path d="M101.8 69.06a3.7 3.7 0 0 1-3.7-3.72 3.76 3.76 0 0 1 .21-1.24 3.7 3.7 0 1 1 3.49 5zm0-6.84a3.14 3.14 0 1 0 3 4.17 3.17 3.17 0 0 0-.11-2.4 3.13 3.13 0 0 0-2.85-1.8z" fill="#033b55"/><path d="M47.41 63.34h43a2.48 2.48 0 0 1 2.48 2.48 2.47 2.47 0 0 1-2.48 2.47h-43a2.47 2.47 0 0 1-2.48-2.47 2.48 2.48 0 0 1 2.48-2.48z" fill="#1da3a9"/><path d="M90.36 68.67H47.41a2.86 2.86 0 0 1 0-5.72h43a2.86 2.86 0 0 1 0 5.72zm-42.95-4.93a2.1 2.1 0 0 0 0 4.17h43a2.1 2.1 0 0 0 .53-4.17 2.35 2.35 0 0 0-.53 0z" fill="#033b55"/><path d="M71.26 77h7v7h-7z" fill="#1da3a9"/><path d="M78.22 85.11h-7a1.14 1.14 0 0 1-1.1-1.11v-7a1.14 1.14 0 0 1 1.14-1.14h7a1.14 1.14 0 0 1 1.1 1.14v7a1.14 1.14 0 0 1-1.14 1.14zm-5.84-2.27h4.72v-4.71h-4.72z" fill="#033b55"/><rect x="38.23" y="81.67" width="73.02" height="22.36" rx="6.02" ry="6.02" fill="#68c8d0"/><path d="M105.79 105.17H43.72a6.59 6.59 0 0 1-6.59-6.59V87.1a6.59 6.59 0 0 1 6.59-6.59h62.1a6.6 6.6 0 0 1 6.6 6.59v11.45a6.6 6.6 0 0 1-6.59 6.62zM43.72 82.8a4.34 4.34 0 0 0-4.36 4.29v11.46a4.33 4.33 0 0 0 4.3 4.35h62.16a4.34 4.34 0 0 0 4.33-4.32V87.1a4.34 4.34 0 0 0-4.33-4.32z" fill="#033b55"/><path d="M105.15 94.11a3.71 3.71 0 1 1-2.15-4.92 3.8 3.8 0 0 1 2.19 4.91z" fill="#ef502a"/><path d="M101.79 89a3.58 3.58 0 0 1 1.21.21 3.8 3.8 0 0 1 2.15 4.92 3.88 3.88 0 0 1-3.61 2.62 3.53 3.53 0 0 1-1.2-.21 3.81 3.81 0 0 1-2.15-4.92 3.89 3.89 0 0 1 3.6-2.62m0-1.14a5 5 0 0 0-4.66 3.34 5 5 0 0 0 2.87 6.37 4.73 4.73 0 0 0 1.58.27 5 5 0 0 0 4.68-3.34 5.1 5.1 0 0 0-.11-3.8 4.67 4.67 0 0 0-4.36-2.86z" fill="#033b55"/><path d="M105 93.56a3.42 3.42 0 1 1-2-4.38 3.42 3.42 0 0 1 2 4.38z" fill="#ef502a"/><path d="M101.8 96.1a3.49 3.49 0 1 1 1.57-.39 3.72 3.72 0 0 1-1.57.39zm0-6.85a3.16 3.16 0 1 0 2.93 4.3v-.09a3.13 3.13 0 0 0-1.88-4 3 3 0 0 0-1.08-.2z" fill="#033b55"/><path d="M47.41 90.37h43a2.48 2.48 0 0 1 2.48 2.48 2.48 2.48 0 0 1-2.48 2.48h-43a2.48 2.48 0 0 1-2.48-2.48 2.48 2.48 0 0 1 2.48-2.48z" fill="#1da3a9"/><path d="M90.36 95.7H47.41a2.85 2.85 0 1 1 0-5.7h43a2.85 2.85 0 0 1 0 5.7zm-42.95-4.94a2.1 2.1 0 0 0 0 4.17h43a2.1 2.1 0 1 0 .53-4.17 1.57 1.57 0 0 0-.53 0z" fill="#033b55"/><path d="M80.31 28.82A21.65 21.65 0 0 1 83 26.77c-6.4-7.43-15-12.32-23.82-11.07 7.44.55 15.55 5.93 21.13 13.12zm44.85 27.12a22.31 22.31 0 0 0-11.68-7.51c2.06-9.67-.36-17.69-8.7-22.92a17.42 17.42 0 0 0-14.68-2.27 18 18 0 0 1 11.1 3.18c8.59 5.61 11.08 14.19 9 24.59a23 23 0 0 1 12 8.08c5.46 7.16 7.15 15.17 4.58 23.69.08.34.17.68.25 1a27.93 27.93 0 0 0 2-4.12c3.31-8.58 1.83-16.62-3.84-23.75z" fill="#e6f4f4"/></svg>