<svg data-name="Layer 1" xmlns="http://www.w3.org/2000/svg" viewBox="0 0 144.67 143.09"><path d="M85.16 14.46c8.63-6.11 17.76-7.25 26.84-1.56 10.25 6.43 13.23 16.29 10.7 28.19a27.45 27.45 0 0 1 14.3 9.26c7 8.78 8.79 18.67 4.76 29.21S129.94 96.12 119 97.67a33.89 33.89 0 0 1-4.5.29Q71.73 98 29 98C15.38 98 4.22 88.69 1.26 75c-3.51-16 7.54-32.29 23.3-34.43 1-.13 2-.28 3-.43C25.71 22.63 31.8 9.28 48.12 2.91c14.69-5.73 27.13-.69 37.04 11.55z" fill="#fff"/><path d="M67.45 98.76h-3.13v-1.57h3.13zm-3.91 0H60.4v-1.57h3.14zm-3.92 0h-3.13v-1.57h3.13zm8.61 0v-1.57h3.14v1.57zm3.92 0v-1.57h3.13v1.57zm-16.44 0h-3.14v-1.57h3.14zm-3.92 0h-3.13v-1.57h3.13zm28.19 0v-1.57h3.13v1.57zm-3.92 0v-1.57h3.14v1.57zm-28.19 0h-3.13v-1.57h3.14zm36 0v-1.57H87v1.56zm3.92 0v-1.57h3.13v1.56zM44 98.75h-3.17v-1.56H44zm-3.92 0h-3.17v-1.57h3.14zm51.68 0v-1.57h3.13v1.57zm3.92 0v-1.57h3.13v1.57zm-59.51 0H33v-1.57h3.13zm63.42 0v-1.57h3.14v1.57zm3.92 0v-1.57h3.13v1.56zm-71.26 0h-3.17v-1.57h3.14zm75.17 0v-1.57h3.14v1.57zm3.92 0v-1.58h3.13v1.57zm-83 0a28.18 28.18 0 0 1-3.2-.24l.2-1.56a27.89 27.89 0 0 0 3 .24zm87 0v-1.56c1.1 0 2.1-.08 3-.19l.18 1.55a31.38 31.38 0 0 1-3.29.18zm4-.3l-.34-1.57c1-.15 2-.34 3-.57l.36 1.52c-1 .24-2.06.44-3.13.6zm-94.95-.06a29.69 29.69 0 0 1-3.14-.68l.42-1.51a26.1 26.1 0 0 0 3 .65zm98.87-.74l-.4-1.51a29.9 29.9 0 0 0 2.91-.92l.55 1.46a29.51 29.51 0 0 1-3.17.95zm-102.89-.18a28.89 28.89 0 0 1-3-1.12l.63-1.44A25.59 25.59 0 0 0 20.82 96zM127 96.37l-.6-1.45a27.79 27.79 0 0 0 2.75-1.31l.75 1.37a28.65 28.65 0 0 1-2.9 1.39zM16.61 96a27.64 27.64 0 0 1-2.83-1.54l.82-1.33a26.59 26.59 0 0 0 2.68 1.45zm114-1.44l-.79-1.35a23.4 23.4 0 0 0 2.5-1.7l1 1.24a26 26 0 0 1-2.76 1.83zM13.1 94.05a26.54 26.54 0 0 1-2.58-1.92l1-1.2A26.53 26.53 0 0 0 14 92.74zm120.76-1.78l-1-1.21a24.07 24.07 0 0 0 2.23-2.06l1.13 1.08a25.82 25.82 0 0 1-2.36 2.19zm-124-.66a30.52 30.52 0 0 1-2.29-2.26l1.16-1a27.11 27.11 0 0 0 2.16 2.13zm126.86-2.14l-1.17-1a26 26 0 0 0 1.89-2.38l1.28.9a29.11 29.11 0 0 1-1.95 2.48zM7.09 88.74a30.15 30.15 0 0 1-1.95-2.55l1.29-.88c.57.83 1.2 1.65 1.85 2.42zm132.13-2.46l-1.3-.86c.54-.83 1.06-1.71 1.54-2.63l1.39.73a29.89 29.89 0 0 1-1.63 2.76zM4.7 85.52a28.3 28.3 0 0 1-1.59-2.79l1.4-.73A26.27 26.27 0 0 0 6 84.67zm136.51-2.72l-1.4-.69c.44-.9.85-1.84 1.22-2.8l1.46.56c-.39 1-.82 1.99-1.28 2.93zM2.76 82a30.84 30.84 0 0 1-1.22-3L3 78.51c.34 1 .72 1.91 1.15 2.83zm140-2.88l-1.48-.53c.35-1 .65-2 .9-2.92l1.52.39c-.25 1.01-.57 2.04-.93 3.06zM1.29 78.27c-.32-1-.6-2-.83-3.09L2 74.84c.22 1 .48 2 .79 3zm142.61-3l-1.53-.36a28.13 28.13 0 0 0 .53-3l1.56.19a32.1 32.1 0 0 1-.56 3.18zM.3 74.39a28.71 28.71 0 0 1-.42-3.19l1.56-.12a28 28 0 0 0 .39 3zm144.24-3.08l-1.54-.14c.08-.83.12-1.66.12-2.48v-.56h1.57v.61c-.02.82-.07 1.7-.15 2.57zM-.17 70.39v-1.38c0-.46 0-1.22.06-1.84l1.56.1v3.05zm143.24-3a27.9 27.9 0 0 0-.34-3l1.54-.26a24.67 24.67 0 0 1 .36 3.2zm-141.6-.88l-1.56-.14a31.25 31.25 0 0 1 .47-3.18l1.53.31a28.36 28.36 0 0 0-.44 3.01zm141.12-2.9a27 27 0 0 0-.77-2.94l1.49-.49a29.27 29.27 0 0 1 .82 3.12zM2.07 62.75L.55 62.4c.24-1 .54-2.08.88-3.09l1.48.51c-.33.96-.61 1.95-.84 2.93zm139.5-2.81a27.06 27.06 0 0 0-1.18-2.81l1.41-.68a30.64 30.64 0 0 1 1.25 3zM3.17 59.1l-1.46-.55A30.4 30.4 0 0 1 3 55.61l1.4.7c-.46.91-.87 1.85-1.23 2.79zm136.88-2.65a28.18 28.18 0 0 0-1.53-2.64l1.32-.85c.59.91 1.13 1.84 1.61 2.77zm-135.3-.82l-1.39-.74C3.87 54 4.43 53 5 52.14l1.32.86a27.76 27.76 0 0 0-1.57 2.63zm133.35-2.46a35.29 35.29 0 0 0-1.7-2.33l-.11-.14 1.21-1 .12.15c.64.8 1.24 1.61 1.78 2.42zM6.76 52.4l-1.27-.92a28.54 28.54 0 0 1 2-2.5l1.16 1a27.52 27.52 0 0 0-1.89 2.42zm129-2.28a24.18 24.18 0 0 0-2.11-2.18l1.06-1.16A27.32 27.32 0 0 1 137 49.1zM9.18 49.46L8 48.38a28.5 28.5 0 0 1 2.33-2.21l1 1.19a27.33 27.33 0 0 0-2.15 2.1zm123.94-2a24.23 24.23 0 0 0-2.41-1.83l.87-1.31a29.23 29.23 0 0 1 2.56 2zM12 46.87l-1-1.22a29.73 29.73 0 0 1 2.62-1.87l.83 1.32A28.49 28.49 0 0 0 12 46.87zm118.1-1.69a27.45 27.45 0 0 0-2.67-1.46l.68-1.41a28.47 28.47 0 0 1 2.82 1.55zm-115-.47l-.8-1.35a25.79 25.79 0 0 1 2.86-1.48l.64 1.43a25.57 25.57 0 0 0-2.71 1.4zm111.62-1.32c-.91-.4-1.87-.78-2.85-1.11l.5-1.48c1 .35 2 .74 3 1.17zM18.48 43l-.59-1.45a27.39 27.39 0 0 1 3.05-1l.42 1.45a26.38 26.38 0 0 0-2.88 1zm104.66-1l-.68-.21-.7-.2.15-.71c.17-.79.31-1.57.43-2.33l1.55.24c-.09.55-.19 1.13-.3 1.71v.12a5.41 5.41 0 0 1-.12.58zm-101-.21l-.37-1.52a25 25 0 0 1 2.74-.52l.42-.06.21 1.55-.42.06a24.47 24.47 0 0 0-2.63.54zm3.78-.66l-.22-1.55 1.08-.16c0-.18 0-.36-.05-.55l1.56-.13c0 .42.07.84.12 1.27l.08.75zm.74-3c-.07-1.07-.12-2.14-.13-3.17h1.56c0 1 .06 2 .14 3.08zm97.34-.08l-1.55-.21c.13-1 .23-2.06.27-3.05l1.56.07c-.04 1.03-.14 2.14-.28 3.19zm-96-3.89h-1.53c0-1.08 0-2.15.11-3.18l1.56.11c-.06 1-.14 2.03-.14 3.07zm96.27-.1h-1.57v-.54c0-.85 0-1.69-.12-2.5l1.56-.15c.08.86.12 1.75.12 2.65zM28.2 30.32l-1.56-.13c.1-1.08.23-2.14.4-3.17l1.55.25c-.17 1-.3 2.02-.39 3.05zm94.35-.09a23.76 23.76 0 0 0-.54-3l1.51-.38a25 25 0 0 1 .59 3.17zm-.74-3.71a21.26 21.26 0 0 0-1-2.83l1.43-.64a22 22 0 0 1 1.11 3zm-93.09 0l-1.54-.29c.2-1.06.44-2.11.73-3.11l1.51.42c-.28.96-.51 1.97-.7 2.98zM120.45 23a21.86 21.86 0 0 0-1.53-2.6l1.29-.89a23.69 23.69 0 0 1 1.64 2.79zm-90.82-.2l-1.5-.46c.32-1 .69-2.05 1.1-3l1.44.61a29.58 29.58 0 0 0-1.04 2.86zm88.85-3a22.39 22.39 0 0 0-2-2.3l1.12-1.09a23 23 0 0 1 2.1 2.45zM31 19.24l-1.43-.65A30.77 30.77 0 0 1 31 15.74l1.35.8a27.52 27.52 0 0 0-1.35 2.7zM116 17a24.67 24.67 0 0 0-2.31-2l.94-1.25a27.9 27.9 0 0 1 2.46 2.09zm-83.2-1.08l-1.32-.84a29.62 29.62 0 0 1 1.86-2.62l1.22 1a27.08 27.08 0 0 0-1.79 2.43zm52.2-.41l-.43-.51.58-.54-.44-.62c.89-.62 1.79-1.21 2.69-1.73l.79 1.35c-.86.5-1.73 1.06-2.57 1.66zm.11-1.07zm27.89.11c-.47-.33-1-.67-1.48-1-.36-.23-.72-.44-1.08-.65l.76-1.36c.39.22.77.44 1.16.69s1.06.68 1.55 1zm-29-.21c-.67-.81-1.36-1.59-2-2.31L83.15 11c.7.75 1.41 1.55 2.1 2.38zm4.8-1.28l-.75-1.37a30.61 30.61 0 0 1 2.95-1.4l.6 1.45a28.54 28.54 0 0 0-2.75 1.32zM35 12.82l-1.2-1A28.49 28.49 0 0 1 36 9.47l1.1 1.13a28.93 28.93 0 0 0-2.1 2.22zm74.79-.27a25 25 0 0 0-2.76-1.25l.54-1.47a25.72 25.72 0 0 1 3 1.33zm-28.32-1.08q-1.09-1.12-2.22-2.13l1-1.17c.77.69 1.54 1.44 2.3 2.21zm10.83 0L91.74 10a26.72 26.72 0 0 1 3.09-1l.36 1.52a25.23 25.23 0 0 0-2.89.93zm14-.4a20.58 20.58 0 0 0-2.92-.76l.28-1.54a22.29 22.29 0 0 1 3.14.81zm-10.4-.66l-.31-1.53a20.86 20.86 0 0 1 3.22-.41l.11 1.53a20.38 20.38 0 0 0-2.99.39zm6.74-.21a19.18 19.18 0 0 0-2.73-.2h-.27V8.43h.29a22.26 22.26 0 0 1 3 .2zm-65-.09l-1-1.17c.78-.7 1.62-1.38 2.49-2L40 8.16a30.15 30.15 0 0 0-2.34 1.93zm41-1.26c-.79-.67-1.59-1.31-2.41-1.9l.92-1.27c.85.62 1.69 1.29 2.51 2zm-38-1.11l-.9-1.29c.86-.59 1.77-1.17 2.71-1.7l.78 1.36a29.4 29.4 0 0 0-2.58 1.61zm35-1.23c-.85-.59-1.72-1.14-2.59-1.63l.77-1.36c.91.51 1.82 1.08 2.71 1.7zm-31.73-.79l-.75-1.38c.91-.49 1.88-1 2.87-1.4l.63 1.43c-.95.42-1.88.87-2.75 1.35zM72.39 4.5a27.47 27.47 0 0 0-2.76-1.28l.58-1.46c1 .4 2 .85 2.91 1.35zm-25-.44l-.61-1.44 1.07-.43c.65-.26 1.29-.49 1.92-.7L50.24 3c-.61.2-1.22.42-1.84.66zM68.92 3A25 25 0 0 0 66 2.06l.38-1.52a26.58 26.58 0 0 1 3.08.94zm-18-.2l-.46-1.5c1-.32 2.07-.59 3.1-.81L53.93 2c-.93.18-1.93.44-2.93.75zm14.3-.86a27.65 27.65 0 0 0-3-.45l.15-1.56a28 28 0 0 1 3.18.48zm-10.54-.11L54.39.29c1.07-.2 2.14-.34 3.19-.43l.12 1.56a29.14 29.14 0 0 0-3.02.41zm6.82-.44a14.93 14.93 0 0 0-1.65 0h-1.39l-.08-1.58h1.51c.51 0 1.15 0 1.71.05z" fill="#033b55"/><rect x="30.05" y="114.79" width="89.84" height="27.52" rx="7.13" ry="7.13" fill="#68c8d0"/><path d="M114.3 143.09h-3.13v-1.56h3.13a4.69 4.69 0 0 0 1.66-.3l.54 1.47a6.29 6.29 0 0 1-2.2.39zm-3.91 0h-3.13v-1.56h3.13zm-3.92 0h-3.13v-1.56h3.13zm-3.91 0h-3.13v-1.56h3.13zm-3.92 0h-3.13v-1.56h3.13zm-3.91 0H91.6v-1.56h3.13zm-3.92 0h-3.13v-1.56h3.13zm-3.91 0h-3.13v-1.56h3.13zm-3.92 0h-3.13v-1.56H83zm-3.91 0h-3.13v-1.56h3.13zm-3.92 0H72v-1.56h3.13zm-3.91 0h-3.13v-1.56h3.13zm-3.92 0h-3.13v-1.56h3.13zm-3.91 0h-3.13v-1.56h3.13zm-3.92 0h-3.13v-1.56h3.13zm-3.91 0h-3.13v-1.56h3.13zm-3.92 0h-3.13v-1.56h3.13zm-3.91 0h-3.13v-1.56h3.13zm-3.92 0H40.7v-1.56h3.13zm-3.91 0h-3.13v-1.56h3.13zm-3.92 0h-.37a6.38 6.38 0 0 1-3-.76l.75-1.38a4.73 4.73 0 0 0 2.27.58H36zm81.31-.76l-.74-1.37a4.92 4.92 0 0 0 1.9-1.86l1.36.77a6.34 6.34 0 0 1-2.52 2.46zm-85.45-.48a6.41 6.41 0 0 1-2.15-2.79l1.46-.58a4.81 4.81 0 0 0 1.62 2.11zm88.36-2.78l-1.45-.58a4.78 4.78 0 0 0 .33-1.76v-1h1.57v1a6.28 6.28 0 0 1-.45 2.34zm-90.78-.86a6.12 6.12 0 0 1-.18-1.48v-1.82h1.57v1.82a5.18 5.18 0 0 0 .13 1.11zm91.23-3.29h-1.57v-3.14h1.57zm-89.84-.8h-1.57V131h1.57zm89.84-3.12h-1.57v-3.13h1.57zm-89.84-.79h-1.57v-3.13h1.57zm89.84-3.12h-1.57V124h1.57zm-89.84-.8h-1.57v-3.13h1.57zm89.84-3.12h-1.57v-3.08l1.56-.1v.39zm-89.84-.79h-1.57v-2a6.69 6.69 0 0 1 .13-1.28l1.54.31a4.5 4.5 0 0 0-.1 1zm88.18-3a4.79 4.79 0 0 0-1.24-2.35l1.14-1.08a6.28 6.28 0 0 1 1.63 3.12zm-87.9-.66l-1.47-.52a6.27 6.27 0 0 1 2.06-2.86l1 1.23a4.83 4.83 0 0 0-1.59 2.19zm86.17-2.15a4.9 4.9 0 0 0-2.46-1l.17-1.55a6.27 6.27 0 0 1 3.26 1.34zm-84.06-.38l-.79-1.35a6.33 6.33 0 0 1 3.2-.87h.19v1.56h-.19a4.75 4.75 0 0 0-2.41.7zm80.9-.66H111V114h3.13zm-3.91 0h-3.13V114h3.13zm-3.92 0h-3.13V114h3.13zm-3.91 0h-3.13V114h3.13zm-3.92 0h-3.13V114h3.13zm-3.91 0h-3.13V114h3.13zm-3.92 0H87.5V114h3.13zm-3.91 0h-3.13V114h3.13zm-3.92 0h-3.13V114h3.13zm-3.91 0h-3.13V114h3.13zm-3.92 0h-3.13V114H75zm-3.91 0h-3.13V114h3.13zm-3.92 0H64V114h3.13zm-3.91 0H60.1V114h3.13zm-3.92 0h-3.13V114h3.13zm-3.91 0h-3.13V114h3.13zm-3.92 0h-3.13V114h3.13zm-3.91 0h-3.13V114h3.13zm-3.92 0h-3.13V114h3.13zm-3.91 0h-3.13V114h3.13z" fill="#033b55"/><path d="M112.39 130.1a4.56 4.56 0 1 1-2.65-6 4.68 4.68 0 0 1 2.65 6z" fill="#ef502a"/><path d="M108.26 123.79a4.24 4.24 0 0 1 1.48.26 4.66 4.66 0 0 1 2.65 6 4.79 4.79 0 0 1-4.43 3.23 4.44 4.44 0 0 1-1.48-.26 4.68 4.68 0 0 1-2.65-6.06 4.77 4.77 0 0 1 4.43-3.22m0-1.18a6 6 0 0 0-5.54 4 5.86 5.86 0 0 0 3.36 7.56 5.43 5.43 0 0 0 1.88.33 6 6 0 0 0 5.53-4 5.86 5.86 0 0 0-3.35-7.56 5.47 5.47 0 0 0-1.88-.33z" fill="#033b55"/><path d="M112.22 129.42a4.21 4.21 0 1 1-2.52-5.42 4.19 4.19 0 0 1 2.52 5.42z" fill="#ef502a"/><path d="M108.27 132.49a4.54 4.54 0 0 1-1.54-.27 4.51 4.51 0 0 1-2.7-5.77 4.5 4.5 0 1 1 8.47 3.07 4.48 4.48 0 0 1-2.33 2.54 4.36 4.36 0 0 1-1.9.43zm0-8.42a3.91 3.91 0 1 0 1.34.23 4.15 4.15 0 0 0-1.35-.23zm4 5.35z" fill="#033b55"/><rect x="38.29" y="125.5" width="58.95" height="6.1" rx="2.94" ry="2.94" fill="#1da3a9"/><path d="M94.94 132H40.6a2.7 2.7 0 0 1-2.7-2.69v-1.5a2.7 2.7 0 0 1 2.7-2.69h54.34a2.69 2.69 0 0 1 2.69 2.69v1.5a2.69 2.69 0 0 1-2.69 2.69zm-54.34-6.1a1.91 1.91 0 0 0-1.91 1.91v1.5a1.91 1.91 0 0 0 1.91 1.91h54.34a1.92 1.92 0 0 0 1.91-1.91v-1.5a1.92 1.92 0 0 0-1.91-1.91z" fill="#033b55"/><rect x="30.05" y="48.75" width="89.84" height="27.52" rx="7.25" ry="7.25" fill="#68c8d0"/><path d="M114.26 77.05h-3.21v-1.57h3.16zm-4 0h-3.15v-1.57h3.15zm-3.94 0h-3.16v-1.57h3.16zm-3.95 0h-3.15v-1.57h3.15zm-3.94 0h-3.16v-1.57h3.16zm-4 0h-3.11v-1.57h3.16zm-4 0h-3.05v-1.57h3.15zm-3.94 0h-3.06v-1.57h3.16zm-4 0h-3v-1.57h3.15zm-3.94 0h-3.01v-1.57h3.16zm-4 0h-2.96v-1.57h3.16zm-3.94 0h-2.96v-1.57h3.16zm-4 0H63.7v-1.57h3.16zm-4 0h-2.85v-1.57h3.15zm-3.94 0h-2.86v-1.57H59zm-3.95 0h-2.85v-1.57H55zm-3.94 0h-2.86v-1.57h3.16zm-3.95 0H44v-1.57h3.15zm-3.94 0H40v-1.57h3.16zm-3.95 0h-2.86v-1.57h3.16zm-4 0a6.51 6.51 0 0 1-3.33-1.23l.93-1.27a4.83 4.83 0 0 0 2.52.94zm79.92 0l-.23-1.55a4.85 4.85 0 0 0 2.44-1.12l1 1.2a6.5 6.5 0 0 1-2.91 1.42zm-83.63-1.83a6.49 6.49 0 0 1-1.77-3.07l1.54-.38a4.87 4.87 0 0 0 1.34 2.32zm87.8-.34l-1.17-1a4.86 4.86 0 0 0 1.14-2.46l1.55.27a6.46 6.46 0 0 1-1.55 3.19zM29.3 71.26V68h1.57v2.56a4.36 4.36 0 0 0 0 .51zm91.37-.46l-1.57-.06v-3.12h1.57v3.18zm-89.84-3.56h-1.57v-3.16h1.57zm89.84-.41h-1.57v-3.16h1.57zm-89.84-3.54h-1.57v-3.16h1.57zm89.84-.41h-1.57v-3.16h1.57zm-89.84-3.53h-1.57v-3.16h1.57zm89.84-.42h-1.57v-3.15h1.57zM30.83 55.4h-1.57v-1a6.31 6.31 0 0 1 .48-2.4l1.45.59a4.83 4.83 0 0 0-.36 1.84zm89.84-.4h-1.57v-.56a4.89 4.89 0 0 0-.5-2.16l1.4-.69a6.25 6.25 0 0 1 .67 2.85zm-89.18-3l-1.35-.78a6.49 6.49 0 0 1 2.54-2.47l.74 1.38A5 5 0 0 0 31.49 52zm86.77-.3a5 5 0 0 0-2.06-1.7l.64-1.43a6.56 6.56 0 0 1 2.71 2.27zM34 49.83l-.54-1.47a6.45 6.45 0 0 1 2.26-.36h1.16v1.56h-1.16a4.84 4.84 0 0 0-1.72.27zm81.52-.11a5.12 5.12 0 0 0-1.35-.19h-1.57V48h1.57a6.33 6.33 0 0 1 1.78.25zm-3.71-.19h-3.11V48h3.15zm-3.94 0h-3.16V48h3.16zm-4 0h-3.07V48h3.2zm-3.95 0h-3.06V48H100zm-3.94 0h-3.07V48h3.16zm-3.95 0H89V48h3.15zm-3.94 0H85V48h3.16zm-4 0h-3.01V48h3.15zm-3.94 0h-3.02V48h3.16zm-4 0h-2.97V48h3.16zm-3.94 0h-2.97V48h3.16zm-4 0h-2.92V48h3.16zm-4 0h-2.86V48h3.15zm-3.94 0H57.4V48h3.16zm-4 0h-2.81V48h3.15zm-3.94 0h-2.82V48h3.16zm-4 0h-2.77V48h3.16zm-3.94 0h-2.77V48h3.16zm-4 0h-2.72V48h3.16z" fill="#033b55"/><path d="M112.39 64.06a4.56 4.56 0 1 1-2.65-6.06 4.67 4.67 0 0 1 2.65 6.06z" fill="#ef502a"/><path d="M108.26 57.74a4.48 4.48 0 0 1 1.48.26 4.68 4.68 0 0 1 2.65 6.06 4.78 4.78 0 0 1-4.39 3.22 4.2 4.2 0 0 1-1.48-.26 4.68 4.68 0 0 1-2.69-6.02 4.79 4.79 0 0 1 4.43-3.22m0-1.17a6 6 0 0 0-5.54 4 5.87 5.87 0 0 0 3.36 7.57 5.43 5.43 0 0 0 1.88.33 6 6 0 0 0 5.53-4 6.06 6.06 0 0 0-.12-4.51 5.54 5.54 0 0 0-3.23-3.05 5.47 5.47 0 0 0-1.88-.33z" fill="#033b55"/><path d="M112.22 63.38A4.21 4.21 0 1 1 109.7 58a4.21 4.21 0 0 1 2.52 5.38z" fill="#ef502a"/><path d="M108.26 66.45a4.57 4.57 0 0 1-1.53-.27 4.51 4.51 0 0 1-2.7-5.77 4.51 4.51 0 0 1 5.77-2.7 4.51 4.51 0 0 1 2.7 5.77 4.51 4.51 0 0 1-4.24 2.97zm0-8.42a3.92 3.92 0 0 0-3.68 2.58 3.92 3.92 0 0 0 7.42 2.67 3.91 3.91 0 0 0-3.74-5.28zm4 5.35z" fill="#033b55"/><rect x="38.29" y="59.46" width="58.95" height="6.1" rx="2.94" ry="2.94" fill="#1da3a9"/><path d="M94.94 66H40.6a2.7 2.7 0 0 1-2.7-2.7v-1.54a2.7 2.7 0 0 1 2.7-2.69h54.34a2.69 2.69 0 0 1 2.69 2.69v1.49A2.69 2.69 0 0 1 94.94 66zM40.6 59.85a1.91 1.91 0 0 0-1.91 1.91v1.49a1.9 1.9 0 0 0 1.91 1.91h54.34a1.91 1.91 0 0 0 1.91-1.91v-1.49a1.92 1.92 0 0 0-1.91-1.91z" fill="#033b55"/><rect x="30.05" y="82.02" width="89.84" height="27.52" rx="7.22" ry="7.22" fill="#68c8d0"/><path d="M114.25 110.32h-3.14v-1.57h3.13a4.56 4.56 0 0 0 1.56-.26l.51 1.48a6.32 6.32 0 0 1-2.06.35zm-3.93 0h-3.13v-1.57h3.13zm-3.91 0h-3.13v-1.57h3.13zm-3.92 0h-3.13v-1.57h3.13zm-3.91 0h-3.13v-1.57h3.13zm-3.92 0h-3.13v-1.57h3.13zm-3.91 0h-3.13v-1.57h3.13zm-3.92 0H83.7v-1.57h3.13zm-3.91 0h-3.13v-1.57h3.13zm-3.92 0h-3.13v-1.57H79zm-3.91 0H72v-1.57h3.13zm-3.92 0H68v-1.57h3.13zm-3.91 0h-3.13v-1.57h3.13zm-3.92 0h-3.13v-1.57h3.13zm-3.91 0H56.3v-1.57h3.13zm-3.92 0h-3.13v-1.57h3.13zm-3.91 0h-3.13v-1.57h3.13zm-3.92 0h-3.13v-1.57h3.13zm-3.91 0h-3.13v-1.57h3.13zm-3.92 0h-3.13v-1.57h3.13zm-3.91 0h-.24a6.39 6.39 0 0 1-3.15-.83l.77-1.36a4.8 4.8 0 0 0 2.38.62h.24zm81.19-.69l-.71-1.4a4.86 4.86 0 0 0 2-1.8l1.34.82a6.52 6.52 0 0 1-2.63 2.38zM31.8 109a6.51 6.51 0 0 1-2.11-2.81l1.46-.57a5 5 0 0 0 1.6 2.13zm88.33-2.54l-1.43-.63a4.82 4.82 0 0 0 .4-1.94v-.81h1.57v.81a6.34 6.34 0 0 1-.54 2.57zm-90.7-1.13a6.39 6.39 0 0 1-.17-1.45V102h1.57v1.85A5.06 5.06 0 0 0 31 105zm91.24-3h-1.57v-3.17h1.57zm-89.84-1h-1.57v-3.21h1.57zm89.84-2.87h-1.57v-3.21h1.57zm-89.84-1h-1.57v-3.25h1.57zm89.84-2.88h-1.57v-3.25h1.57zm-89.84-1h-1.57v-3.29h1.57zm89.84-2.87h-1.57v-3.04a1.61 1.61 0 0 0 0-.22l1.57-.07v3.17zm-89.84-1h-1.57v-2.04a6.48 6.48 0 0 1 .17-1.46l1.53.36a4.53 4.53 0 0 0-.13 1.1zM119 86.78a4.83 4.83 0 0 0-1.18-2.38l1.18-1.05a6.43 6.43 0 0 1 1.56 3.15zm-87.86-.86l-1.46-.56a6.4 6.4 0 0 1 2.11-2.81l.95 1.24a4.88 4.88 0 0 0-1.58 2.13zm86.19-2a4.83 4.83 0 0 0-2.43-1.08l.22-1.55a6.33 6.33 0 0 1 3.21 1.43zm-84-.51l-.77-1.36a6.38 6.38 0 0 1 3.14-.83h.3v1.58h-.3a4.9 4.9 0 0 0-2.37.62zm80.92-.62h-3.13v-1.56h3.12zm-3.92 0h-3.13v-1.56h3.13zm-3.91 0h-3.13v-1.56h3.13zm-3.92 0h-3.13v-1.56h3.13zm-3.91 0h-3.13v-1.56h3.13zm-3.92 0h-3.13v-1.56h3.13zm-3.91 0h-3.13v-1.56h3.13zm-3.92 0h-3.13v-1.56h3.13zm-3.91 0H79.8v-1.56h3.13zM79 82.8h-3.12v-1.57H79zm-3.91 0H72v-1.57h3.1zm-3.92 0h-3.12v-1.57h3.13zm-3.91 0h-3.13v-1.57h3.14zm-3.92 0h-3.12v-1.57h3.13zm-3.91 0H56.3v-1.57h3.14zm-3.92 0h-3.12v-1.57h3.13zm-3.91 0h-3.13v-1.57h3.14zm-3.92 0h-3.12v-1.57h3.13zm-3.91 0h-3.13v-1.57h3.14zm-3.92 0h-3.12v-1.57h3.13z" fill="#033b55"/><path d="M112.39 97.33a4.56 4.56 0 1 1-2.65-6.06 4.67 4.67 0 0 1 2.65 6.06z" fill="#ef502a"/><path d="M108.26 91a4.24 4.24 0 0 1 1.48.26 4.68 4.68 0 0 1 2.65 6.06 4.78 4.78 0 0 1-4.43 3.22 4.2 4.2 0 0 1-1.48-.26 4.68 4.68 0 0 1-2.65-6.06 4.77 4.77 0 0 1 4.43-3.22m0-1.17a6 6 0 0 0-5.54 4 5.87 5.87 0 0 0 3.36 7.57 5.68 5.68 0 0 0 1.88.33 6 6 0 0 0 5.53-4 5.85 5.85 0 0 0-3.35-7.56 5.47 5.47 0 0 0-1.88-.33z" fill="#033b55"/><path d="M112.22 96.64a4.21 4.21 0 1 1-2.52-5.39 4.21 4.21 0 0 1 2.52 5.39z" fill="#ef502a"/><path d="M108.26 99.71a4.48 4.48 0 0 1-4.23-6 4.5 4.5 0 0 1 8.47 3.06 4.51 4.51 0 0 1-4.24 2.94zm0-8.42a3.92 3.92 0 1 0 3.74 5.25 3.93 3.93 0 0 0-3.69-5.25zm4 5.35z" fill="#033b55"/><rect x="38.29" y="92.73" width="58.95" height="6.1" rx="2.94" ry="2.94" fill="#1da3a9"/><path d="M94.94 99.22H40.6a2.7 2.7 0 0 1-2.7-2.7V95a2.69 2.69 0 0 1 2.7-2.69h54.34A2.68 2.68 0 0 1 97.63 95v1.49a2.69 2.69 0 0 1-2.69 2.73zm-54.34-6.1A1.91 1.91 0 0 0 38.69 95v1.49a1.9 1.9 0 0 0 1.91 1.91h54.34a1.91 1.91 0 0 0 1.91-1.91V95a1.92 1.92 0 0 0-1.91-1.91z" fill="#033b55"/><path d="M81.88 18.18a22.36 22.36 0 0 1 2.92-2.39C77.89 7.11 68.62.46 59.13 1.92c8.01.65 16.73 7.86 22.75 16.26zM136.08 50.69a27.57 27.57 0 0 0-14.33-9c2.53-11.54.28-21.32-10-27.56-6.05-3.68-11.35-4.54-17.29-2.86 4.52-.27 7.58 1.29 12.14 4.18 10.57 6.69 13.64 16.94 11 29.32a28.32 28.32 0 0 1 14.78 9.64c6.72 8.54 8.8 18.09 5.64 28.25.1.41.22.82.3 1.23a31.23 31.23 0 0 0 2.52-4.89c4.03-10.22 2.21-19.8-4.76-28.31z" fill="#e6f4f4"/></svg>