<svg data-name="Layer 1" xmlns="http://www.w3.org/2000/svg" viewBox="0 0 150 150"><path fill="#68c8d0" d="M84.42 76.12v-7.6l-6.58-3.8-6.57 3.8v7.6l6.57 3.79 6.58-3.79z"/><path d="M77.84 80.52a.67.67 0 0 1-.3-.08L71 76.64a.61.61 0 0 1-.31-.52v-7.6A.61.61 0 0 1 71 68l6.57-3.8a.61.61 0 0 1 .61 0l6.54 3.8a.61.61 0 0 1 .31.52v7.6a.61.61 0 0 1-.31.52l-6.57 3.8a.68.68 0 0 1-.31.08zm-6-4.75l6 3.44 6-3.44v-6.9l-6-3.45-6 3.45zm12.55.35z" fill="#1da3a9"/><path d="M77.84 72.47h-.07l-5.85-3.54a.15.15 0 0 1 0-.21.15.15 0 0 1 .2 0l5.78 3.49 6.5-3.75a.14.14 0 0 1 .2.06.15.15 0 0 1 0 .2l-6.58 3.8z" fill="#1da3a9"/><path d="M77.84 80.09a.16.16 0 0 1-.15-.16v-7.61a.15.15 0 0 1 .15-.15.16.16 0 0 1 .16.15v7.61a.16.16 0 0 1-.16.16z" fill="#1da3a9"/><path fill="#f05f43" d="M102.49 34.9v-7.6l-6.58-3.8-6.57 3.8v7.6l6.57 3.79 6.58-3.79z"/><path d="M95.91 39.3a.64.64 0 0 1-.3-.08L89 35.42a.62.62 0 0 1-.3-.52v-7.6a.62.62 0 0 1 .3-.52L95.61 23a.59.59 0 0 1 .6 0l6.58 3.8a.6.6 0 0 1 .3.52v7.6a.6.6 0 0 1-.3.52l-6.58 3.8a.61.61 0 0 1-.3.06zm-6-4.75l6 3.45 6-3.45v-6.9l-6-3.45-6 3.45zm12.55.35z" fill="#d73a27"/><path d="M95.91 31.25h-.08L90 27.69a.15.15 0 0 1-.06-.21.16.16 0 0 1 .21-.05l5.77 3.49 6.5-3.75a.15.15 0 0 1 .21.06.14.14 0 0 1-.06.2L96 31.23z" fill="#d73a27"/><path d="M95.91 38.87a.16.16 0 0 1-.15-.16V31.1a.15.15 0 0 1 .15-.15.15.15 0 0 1 .15.15v7.61a.15.15 0 0 1-.15.16z" fill="#d73a27"/><path fill="#f05f43" d="M115.64 34.88v-7.59l-6.58-3.8-6.57 3.8v7.59l6.57 3.8 6.58-3.8z"/><path d="M109.06 39.29a.58.58 0 0 1-.3-.09l-6.57-3.79a.61.61 0 0 1-.31-.53v-7.59a.6.6 0 0 1 .31-.52l6.57-3.8a.61.61 0 0 1 .61 0l6.57 3.8a.59.59 0 0 1 .3.52v7.59a.6.6 0 0 1-.3.53l-6.57 3.79a.59.59 0 0 1-.31.09zm-6-4.75l6 3.44 6-3.44v-6.9l-6-3.45-6 3.45zm12.55.34z" fill="#d73a27"/><path d="M109.06 31.24h-.07l-5.85-3.54a.15.15 0 0 1 0-.21.15.15 0 0 1 .2 0l5.78 3.49 6.5-3.75a.15.15 0 0 1 .2.05.16.16 0 0 1 0 .21l-6.58 3.8z" fill="#d73a27"/><path d="M109.06 38.85a.15.15 0 0 1-.15-.15v-7.61a.15.15 0 0 1 .15-.15.15.15 0 0 1 .16.15v7.61a.15.15 0 0 1-.16.15z" fill="#d73a27"/><path fill="#24637d" d="M48.88 34.9v-7.59l-6.57-3.8-6.58 3.8v7.59l6.58 3.8 6.57-3.8z"/><path d="M42.31 39.3a.61.61 0 0 1-.3-.08l-6.58-3.8a.58.58 0 0 1-.3-.52v-7.59a.6.6 0 0 1 .3-.53L42 23a.59.59 0 0 1 .6 0l6.58 3.79a.63.63 0 0 1 .3.53v7.58a.6.6 0 0 1-.3.52l-6.58 3.8a.64.64 0 0 1-.29.08zm-6-4.75l6 3.45 6-3.45v-6.89l-6-3.45-6 3.45zm12.54.35z" fill="#033b55"/><path d="M42.31 31.26a.11.11 0 0 1-.08 0l-5.85-3.56a.16.16 0 0 1-.05-.21.15.15 0 0 1 .21 0l5.77 3.49 6.5-3.75a.15.15 0 0 1 .21.05.16.16 0 0 1-.06.21l-6.58 3.79a.11.11 0 0 1-.07-.02z" fill="#033b55"/><path fill="#24637d" d="M42.31 31.1v7.62"/><path d="M42.31 38.87a.15.15 0 0 1-.15-.15V31.1a.15.15 0 0 1 .15-.15.15.15 0 0 1 .15.15v7.62a.15.15 0 0 1-.15.15z" fill="#033b55"/><path fill="#24637d" d="M62.04 34.89V27.3l-6.58-3.8-6.58 3.8v7.59l6.58 3.8 6.58-3.8z"/><path d="M55.46 39.29a.64.64 0 0 1-.3-.08l-6.58-3.8a.6.6 0 0 1-.3-.52V27.3a.63.63 0 0 1 .3-.53L55.16 23a.59.59 0 0 1 .6 0l6.58 3.79a.6.6 0 0 1 .3.53v7.59a.58.58 0 0 1-.3.52l-6.58 3.8a.64.64 0 0 1-.3.06zm-6-4.75l6 3.45 6-3.45v-6.9l-6-3.44-6 3.44zm12.54.35z" fill="#033b55"/><path d="M55.46 31.24a.12.12 0 0 1-.08 0l-5.85-3.54a.15.15 0 0 1-.05-.2.15.15 0 0 1 .21-.05l5.77 3.49L62 27.17a.15.15 0 0 1 .21 0 .16.16 0 0 1-.06.21l-6.57 3.79a.12.12 0 0 1-.12.07z" fill="#033b55"/><path d="M55.46 38.86a.15.15 0 0 1-.15-.15v-7.62a.15.15 0 1 1 .3 0v7.62a.15.15 0 0 1-.15.15z" fill="#033b55"/><path fill="#24637d" d="M55.46 46.28v-7.59l-6.58-3.8-6.57 3.8v7.59l6.57 3.8 6.58-3.8z"/><path d="M48.88 50.68a.67.67 0 0 1-.3-.08L42 46.8a.59.59 0 0 1-.31-.52v-7.59a.61.61 0 0 1 .31-.53l6.57-3.79a.61.61 0 0 1 .61 0l6.57 3.79a.6.6 0 0 1 .3.53v7.59a.58.58 0 0 1-.3.52l-6.57 3.8a.68.68 0 0 1-.3.08zm-6-4.75l6 3.45 6-3.45V39l-6-3.45-6 3.45zm12.55.35z" fill="#033b55"/><path d="M48.88 42.63a.1.1 0 0 1-.07 0L43 39.08a.15.15 0 0 1-.05-.21.14.14 0 0 1 .2 0l5.78 3.49 6.5-3.75a.15.15 0 0 1 .2 0 .16.16 0 0 1-.05.21L49 42.61a.11.11 0 0 1-.12.02z" fill="#033b55"/><path fill="#24637d" d="M48.88 42.48v7.62"/><path d="M48.88 50.25a.15.15 0 0 1-.15-.15v-7.62a.15.15 0 0 1 .15-.15.16.16 0 0 1 .16.15v7.62a.16.16 0 0 1-.16.15z" fill="#033b55"/><path fill="#68c8d0" d="M135.34 61.53v-7.59l-6.58-3.8-6.58 3.8v7.59l6.58 3.8 6.58-3.8z"/><path d="M128.76 65.93a.52.52 0 0 1-.3-.08l-6.58-3.79a.6.6 0 0 1-.3-.53v-7.59a.58.58 0 0 1 .3-.52l6.58-3.8a.59.59 0 0 1 .6 0l6.58 3.8a.6.6 0 0 1 .3.52v7.59a.63.63 0 0 1-.3.53l-6.58 3.79a.54.54 0 0 1-.3.08zm-6-4.75l6 3.45 6-3.45v-6.89l-6-3.45-6 3.45zm12.54.35z" fill="#1da3a9"/><path d="M128.76 66.08a.75.75 0 0 1-.38-.1l-6.57-3.79a.76.76 0 0 1-.38-.66v-7.59a.73.73 0 0 1 .38-.65l6.57-3.8a.79.79 0 0 1 .76 0l6.57 3.8a.73.73 0 0 1 .38.65v7.59a.76.76 0 0 1-.38.66L129.14 66a.75.75 0 0 1-.38.08zm-5.82-5l5.82 3.36 5.82-3.36v-6.7L128.76 51l-5.82 3.37zm12.4.43z" fill="#1da3a9"/><path d="M128.76 57.93a.17.17 0 0 1-.1 0l-5.85-3.54A.19.19 0 1 1 123 54l5.75 3.48 6.48-3.74a.18.18 0 0 1 .26.07.18.18 0 0 1-.07.25l-6.58 3.8a.16.16 0 0 1-.08.07zM128.76 57.74v7.61" fill="#1da3a9"/><path d="M128.76 65.54a.18.18 0 0 1-.19-.19v-7.61a.18.18 0 0 1 .19-.19.19.19 0 0 1 .19.19v7.61a.19.19 0 0 1-.19.19z" fill="#1da3a9"/><path fill="#68c8d0" d="M148.49 84.76v-7.59l-6.58-3.8-6.57 3.8v7.59l6.57 3.8 6.58-3.8z"/><path d="M141.91 89.17a.55.55 0 0 1-.3-.09L135 85.29a.63.63 0 0 1-.3-.53v-7.59a.61.61 0 0 1 .3-.52l6.58-3.8a.59.59 0 0 1 .6 0l6.58 3.8a.59.59 0 0 1 .3.52v7.59a.6.6 0 0 1-.3.53l-6.58 3.79a.53.53 0 0 1-.27.09zm-6-4.75l6 3.44 6-3.44v-6.9l-6-3.45-6 3.45zm12.55.34z" fill="#1da3a9"/><path d="M141.91 89.32a.76.76 0 0 1-.38-.11L135 85.42a.76.76 0 0 1-.38-.66v-7.59a.73.73 0 0 1 .38-.65l6.57-3.8a.79.79 0 0 1 .76 0l6.57 3.8a.73.73 0 0 1 .38.65v7.59a.76.76 0 0 1-.38.66l-6.57 3.79a.76.76 0 0 1-.42.11zm-5.82-5l5.82 3.36 5.82-3.36v-6.71l-5.82-3.37-5.82 3.37zm12.4.43z" fill="#1da3a9"/><path d="M141.91 81.16a.19.19 0 0 1-.1 0L136 77.59a.19.19 0 1 1 .19-.32l5.75 3.48 6.45-3.75a.19.19 0 0 1 .26.07.18.18 0 0 1-.07.25L142 81.13a.19.19 0 0 1-.09.03zM141.91 80.97v7.61" fill="#1da3a9"/><path d="M141.91 88.77a.19.19 0 0 1-.19-.19V81a.19.19 0 0 1 .19-.19.18.18 0 0 1 .19.19v7.61a.18.18 0 0 1-.19.16z" fill="#1da3a9"/><path fill="#68c8d0" d="M141.91 72.91v-7.59l-6.57-3.8-6.58 3.8v7.59l6.58 3.8 6.57-3.8z"/><path d="M135.33 77.31a.56.56 0 0 1-.3-.08l-6.57-3.79a.61.61 0 0 1-.31-.53v-7.59a.59.59 0 0 1 .31-.52L135 61a.61.61 0 0 1 .61 0l6.57 3.8a.59.59 0 0 1 .31.52v7.59a.61.61 0 0 1-.31.53l-6.57 3.79a.58.58 0 0 1-.28.08zm-6-4.75l6 3.45 6-3.45v-6.89l-6-3.45-6 3.45zm12.55.35z" fill="#1da3a9"/><path d="M135.34 77.46a.7.7 0 0 1-.38-.1l-6.58-3.79a.78.78 0 0 1-.38-.66v-7.59a.75.75 0 0 1 .38-.65l6.58-3.8a.72.72 0 0 1 .75 0l6.58 3.8a.75.75 0 0 1 .38.65v7.59a.78.78 0 0 1-.38.66l-6.58 3.79a.69.69 0 0 1-.37.1zm-5.83-5l5.83 3.36 5.82-3.36v-6.71l-5.82-3.36-5.83 3.36zm12.4.43z" fill="#1da3a9"/><path d="M135.34 69.3a.16.16 0 0 1-.1 0l-5.85-3.54a.18.18 0 0 1-.06-.26.17.17 0 0 1 .25-.06l5.76 3.48 6.48-3.74a.17.17 0 0 1 .25.07.17.17 0 0 1-.06.25l-6.58 3.8a.15.15 0 0 1-.09 0zM135.33 69.12v7.61" fill="#1da3a9"/><path d="M135.34 76.92a.18.18 0 0 1-.19-.19v-7.61a.18.18 0 0 1 .19-.19.18.18 0 0 1 .18.19v7.61a.18.18 0 0 1-.18.19z" fill="#1da3a9"/><path fill="#f05f43" d="M21.11 69.58v-7.6l-6.58-3.79-6.57 3.79v7.6l6.57 3.79 6.58-3.79z"/><path d="M14.53 74a.64.64 0 0 1-.3-.08L7.65 70.1a.62.62 0 0 1-.3-.52V62a.62.62 0 0 1 .3-.52l6.58-3.8a.64.64 0 0 1 .6 0l6.58 3.8a.6.6 0 0 1 .3.52v7.6a.6.6 0 0 1-.3.52l-6.58 3.8a.61.61 0 0 1-.3.08zm-6-4.75l6 3.45 6-3.45v-6.9l-6-3.45-6 3.45zm12.55.35z" fill="#d73a27"/><path d="M14.53 65.93h-.08l-5.84-3.56a.15.15 0 0 1-.06-.21.16.16 0 0 1 .21 0l5.77 3.49 6.47-3.8a.15.15 0 0 1 .21.06.14.14 0 0 1-.06.2l-6.57 3.8z" fill="#d73a27"/><path d="M14.53 73.55a.15.15 0 0 1-.15-.15v-7.62a.15.15 0 0 1 .15-.15.15.15 0 0 1 .15.15v7.62a.15.15 0 0 1-.15.15z" fill="#d73a27"/><path fill="#f05f43" d="M34.26 92.81v-7.6l-6.58-3.79-6.57 3.79v7.6l6.57 3.79 6.58-3.79z"/><path d="M27.68 97.21a.67.67 0 0 1-.3-.08l-6.57-3.8a.61.61 0 0 1-.31-.52v-7.6a.61.61 0 0 1 .31-.52l6.57-3.8a.66.66 0 0 1 .61 0l6.57 3.8a.61.61 0 0 1 .31.52v7.6a.61.61 0 0 1-.31.52L28 97.13a.68.68 0 0 1-.32.08zm-6-4.75l6 3.45 6-3.45v-6.9l-6-3.45-6 3.45zm12.55.35z" fill="#d73a27"/><path d="M27.68 89.16h-.07l-5.85-3.56a.14.14 0 0 1-.05-.2.14.14 0 0 1 .2-.06l5.78 3.5 6.5-3.76a.15.15 0 0 1 .2.06.15.15 0 0 1 0 .2l-6.58 3.8z" fill="#d73a27"/><path fill="#f05f43" d="M27.68 80.96v-7.6l-6.57-3.79-6.58 3.79v7.6l6.58 3.79 6.57-3.79z"/><path d="M21.11 85.36a.61.61 0 0 1-.3-.08l-6.58-3.8a.6.6 0 0 1-.3-.52v-7.6a.6.6 0 0 1 .3-.52L20.81 69a.64.64 0 0 1 .6 0L28 72.84a.62.62 0 0 1 .3.52V81a.62.62 0 0 1-.3.52l-6.58 3.8a.64.64 0 0 1-.31.04zm-6-4.75l6 3.45 6-3.45v-6.9l-6-3.45-6 3.45zm12.57.39z" fill="#d73a27"/><path d="M21.11 77.31h-.08l-5.85-3.54a.16.16 0 0 1 0-.21.16.16 0 0 1 .21-.05L21.11 77l6.5-3.75a.15.15 0 0 1 .21.06.15.15 0 0 1-.06.2l-6.58 3.8z" fill="#d73a27"/><path d="M21.11 84.93a.15.15 0 0 1-.15-.15v-7.62a.15.15 0 0 1 .3 0v7.62a.15.15 0 0 1-.15.15z" fill="#d73a27"/><path fill="#f05f43" d="M14.45 80.94v-7.59l-6.58-3.8-6.58 3.8v7.59l6.58 3.8 6.58-3.8z"/><path d="M7.87 85.35a.55.55 0 0 1-.3-.09L1 81.47A.62.62 0 0 1 .69 81v-7.6a.62.62 0 0 1 .3-.52L7.57 69a.59.59 0 0 1 .6 0l6.58 3.8a.6.6 0 0 1 .3.52V81a.6.6 0 0 1-.3.52l-6.58 3.74a.55.55 0 0 1-.3.09zm-6-4.75l6 3.44 6-3.44v-6.9l-6-3.45-6 3.45zm12.58.4z" fill="#d73a27"/><path d="M7.87 77.3h-.08l-5.85-3.56a.16.16 0 0 1-.05-.21.16.16 0 0 1 .21 0L7.87 77l6.5-3.75a.15.15 0 0 1 .21.06.15.15 0 0 1-.06.2L8 77.28z" fill="#d73a27"/><path d="M7.87 84.92a.16.16 0 0 1-.15-.16v-7.61a.15.15 0 0 1 .3 0v7.61a.16.16 0 0 1-.15.16zM27.68 96.78a.15.15 0 0 1-.15-.15V89a.15.15 0 0 1 .15-.15.16.16 0 0 1 .16.15v7.62a.16.16 0 0 1-.16.16z" fill="#d73a27"/><path fill="#24637d" d="M104.45 110.36v-7.6l-6.58-3.79-6.58 3.79v7.6l6.58 3.79 6.58-3.79z"/><path d="M97.87 114.76a.64.64 0 0 1-.3-.08l-6.57-3.8a.62.62 0 0 1-.3-.52v-7.6a.62.62 0 0 1 .3-.52l6.58-3.8a.64.64 0 0 1 .6 0l6.58 3.8a.6.6 0 0 1 .3.52v7.6a.6.6 0 0 1-.3.52l-6.58 3.8a.64.64 0 0 1-.31.08zm-6-4.75l6 3.45 6-3.45v-6.9l-6-3.45-6 3.45zm12.55.35z" fill="#033b55"/><path d="M97.87 106.71h-.08l-5.85-3.54a.16.16 0 0 1 0-.21.16.16 0 0 1 .21 0l5.77 3.49 6.5-3.75a.16.16 0 0 1 .21.06.14.14 0 0 1-.06.2L98 106.69z" fill="#033b55"/><path fill="#24637d" d="M111.02 99.08v-7.6l-6.57-3.79-6.58 3.79v7.6l6.58 3.79 6.57-3.79z"/><path d="M104.45 103.48a.61.61 0 0 1-.3-.08l-6.58-3.8a.6.6 0 0 1-.3-.52v-7.6a.6.6 0 0 1 .3-.52l6.58-3.8a.59.59 0 0 1 .6 0l6.58 3.8a.62.62 0 0 1 .3.52v7.6a.62.62 0 0 1-.3.52l-6.58 3.8a.64.64 0 0 1-.3.08zm-6-4.75l6 3.44 6-3.44v-6.9l-6-3.45-6 3.45zm12.55.35z" fill="#033b55"/><path d="M104.45 95.43h-.08l-5.85-3.54a.15.15 0 0 1 .16-.26l5.77 3.49 6.5-3.75a.14.14 0 0 1 .2.06.14.14 0 0 1-.05.2l-6.58 3.8z" fill="#033b55"/><path d="M104.45 103.05a.15.15 0 0 1-.15-.16v-7.61a.15.15 0 0 1 .15-.15.15.15 0 0 1 .15.15v7.61a.16.16 0 0 1-.15.16zM97.87 114.33a.15.15 0 0 1-.15-.15v-7.62a.15.15 0 1 1 .3 0v7.62a.15.15 0 0 1-.15.15z" fill="#033b55"/><path d="M66.12 59.15A.14.14 0 0 1 66 59l-1.86-12a.16.16 0 0 1 .12-.18.17.17 0 0 1 .18.13l1.83 12a.16.16 0 0 1-.13.17z" fill="#033b55" stroke="#033b55" stroke-miterlimit="10" stroke-width=".709"/><path d="M64.16 47.07a.9.9 0 1 1 1-.85.91.91 0 0 1-1 .85zm0-1.5a.59.59 0 0 0-.4.16.58.58 0 0 0-.2.41.6.6 0 1 0 1.19.06.58.58 0 0 0-.56-.62zm.74.64zM66.24 60.67a.89.89 0 0 1-.85-.94.9.9 0 0 1 .94-.85.88.88 0 0 1 .62.3.91.91 0 0 1 .23.65.9.9 0 0 1-.3.62.91.91 0 0 1-.64.22zm0-1.5a.6.6 0 0 0-.59.57.57.57 0 0 0 .15.43.63.63 0 0 0 .41.19.57.57 0 0 0 .43-.15.6.6 0 0 0 .2-.41.6.6 0 0 0-.56-.63zM43.21 82.57a.15.15 0 0 1-.15-.12.15.15 0 0 1 .11-.18L55 79.73a.14.14 0 0 1 .18.11.15.15 0 0 1-.11.18l-11.83 2.55z" fill="#033b55" stroke="#033b55" stroke-miterlimit="10" stroke-width=".709"/><path d="M42.37 83.5a.9.9 0 1 1 0-1.8.88.88 0 0 1 .63.3.89.89 0 0 1 .27.63.9.9 0 0 1-.26.64.89.89 0 0 1-.63.27zm0-1.65V82a.6.6 0 0 0-.59.6.59.59 0 0 0 .22.4.62.62 0 0 0 .42.18.64.64 0 0 0 .38-.18.63.63 0 0 0 .2-.4.6.6 0 0 0-.18-.42.58.58 0 0 0-.42-.18zM55.82 80.61a.9.9 0 0 1 0-1.8.9.9 0 0 1 0 1.8zm0-1.49a.59.59 0 0 0-.42.17.55.55 0 0 0-.17.43.58.58 0 0 0 .6.59.59.59 0 0 0 .41-1 .59.59 0 0 0-.42-.17zm0-.15zM69.16 111a.15.15 0 0 1-.15-.11.14.14 0 0 1 .12-.18l11.87-2.6a.15.15 0 0 1 .18.12.15.15 0 0 1-.11.18L69.19 111z" fill="#033b55" stroke="#033b55" stroke-miterlimit="10" stroke-width=".709"/><path d="M68.32 111.88a.9.9 0 0 1 0-1.8.9.9 0 0 1 0 1.8zm0-1.49a.6.6 0 0 0 0 1.19.6.6 0 0 0 0-1.19zM81.77 109a.89.89 0 0 1-.63-.26.86.86 0 0 1-.26-.63.89.89 0 0 1 .89-.9.9.9 0 0 1 .9.89.92.92 0 0 1-.26.64.88.88 0 0 1-.63.26zm0-1.49a.56.56 0 0 0-.42.18.6.6 0 0 0 0 .84.7.7 0 0 0 .43.17.56.56 0 0 0 .42-.18.59.59 0 0 0-.43-1zM59.72 103.16a.15.15 0 0 1-.11-.18l2.87-11.78a.15.15 0 0 1 .29.07l-2.91 11.78a.13.13 0 0 1-.14.11z" fill="#033b55" stroke="#033b55" stroke-miterlimit="10" stroke-width=".709"/><path d="M59.51 104.74a.85.85 0 0 1-.38-.09.86.86 0 0 1-.46-.51.92.92 0 0 1 0-.69 1 1 0 0 1 .51-.46.92.92 0 0 1 .69 0 .9.9 0 0 1-.09 1.66 1 1 0 0 1-.27.09zm0-1.5a.79.79 0 0 0-.2 0 .55.55 0 0 0-.33.3.61.61 0 0 0 0 .46.58.58 0 0 0 .31.34.54.54 0 0 0 .45 0 .59.59 0 0 0 .34-.3.6.6 0 0 0-.28-.8.58.58 0 0 0-.29 0zm-.67.28zM62.81 91.38a.88.88 0 0 1-.39-.08.91.91 0 0 1-.42-1.2.9.9 0 1 1 1.11 1.23.79.79 0 0 1-.3.05zm-.54-1.15a.6.6 0 0 0 .28.79.61.61 0 0 0 .46 0 .58.58 0 0 0 .34-.31.58.58 0 0 0 0-.45.59.59 0 0 0-.3-.34.6.6 0 0 0-.8.28zM89.09 55.84a.17.17 0 0 1-.13-.07.15.15 0 0 1 .05-.21l10.3-6.4a.15.15 0 0 1 .16.26l-10.3 6.4z" fill="#033b55" stroke="#033b55" stroke-miterlimit="10" stroke-width=".709"/><path d="M88.36 57a.81.81 0 0 1-.36 0 .89.89 0 0 1-.47-.5.92.92 0 0 1 0-.69.87.87 0 0 1 .5-.46.9.9 0 1 1 .64 1.65.81.81 0 0 1-.31 0zm0-1.5a.45.45 0 0 0-.2 0 .58.58 0 0 0-.34.31.63.63 0 0 0 0 .45.65.65 0 0 0 .31.34.61.61 0 0 0 .46 0 .6.6 0 0 0-.21-1.16zm-.25-.1zM100.05 49.78a.85.85 0 0 1-.38-.09.89.89 0 0 1-.44-1.19.89.89 0 0 1 .51-.46.9.9 0 1 1 .31 1.74zm0-1.5a.78.78 0 0 0-.21 0 .59.59 0 0 0-.33.31.57.57 0 0 0 0 .46.6.6 0 0 0 .76.35.6.6 0 0 0-.2-1.16zm-.26-.1zM70.65 30.11a.16.16 0 0 1-.15-.11.16.16 0 0 1 .12-.18l11.86-2.55a.15.15 0 0 1 .06.3l-11.86 2.54z" fill="#033b55" stroke="#033b55" stroke-miterlimit="10" stroke-width=".709"/><path d="M69.82 31a.89.89 0 0 1-.9-.89.88.88 0 0 1 .26-.63.89.89 0 0 1 .63-.27.9.9 0 1 1 0 1.79zm0-1.49a.62.62 0 0 0-.42.18.59.59 0 0 0-.17.42.6.6 0 0 0 .18.42.63.63 0 0 0 .42.17.59.59 0 0 0 .42-.17.63.63 0 0 0 .17-.43.6.6 0 0 0-.6-.56zM83.27 28.15a.9.9 0 0 1 0-1.8.89.89 0 0 1 .63.26.88.88 0 0 1 .26.63.89.89 0 0 1-.25.64.91.91 0 0 1-.64.27zm0-1.5a.64.64 0 0 0-.42.18.6.6 0 0 0 .43 1 .64.64 0 0 0 .42-.18.63.63 0 0 0 .17-.42.56.56 0 0 0-.18-.42.6.6 0 0 0-.42-.18zm0-.15zM28.18 58.52h-.08a.16.16 0 0 1-.06-.21l5.82-10.64a.15.15 0 1 1 .26.14l-5.81 10.63a.16.16 0 0 1-.13.08z" fill="#033b55" stroke="#033b55" stroke-miterlimit="10" stroke-width=".709"/><path d="M27.77 60a.86.86 0 0 1-.58-.21.88.88 0 0 1-.32-.61.94.94 0 0 1 .21-.66.9.9 0 0 1 1.27-.1.89.89 0 0 1 .31.61.91.91 0 0 1-.82 1zm0-1.49a.6.6 0 0 0-.46.21.6.6 0 0 0-.14.43.65.65 0 0 0 .21.41.59.59 0 0 0 .84-.07.62.62 0 0 0 .14-.43.59.59 0 0 0-.21-.41.56.56 0 0 0-.38-.13zm-.57.11zM34.36 47.94a.94.94 0 0 1-.58-.21.89.89 0 0 1-.31-.62.87.87 0 0 1 .21-.65.89.89 0 0 1 .61-.31.9.9 0 0 1 .14 1.79zm0-1.49a.53.53 0 0 0-.4.21.53.53 0 0 0-.14.43.6.6 0 0 0 .2.41.65.65 0 0 0 .44.14.61.61 0 0 0 .4-.21.59.59 0 0 0-.06-.84.62.62 0 0 0-.44-.14zm-.57.11zM130.76 43.1a.16.16 0 0 1-.11-.05l-8.45-8.69a.15.15 0 0 1 .21-.21l8.46 8.69a.16.16 0 0 1 0 .22.15.15 0 0 1-.11.04z" fill="#033b55" stroke="#033b55" stroke-miterlimit="10" stroke-width=".709"/><path d="M121.71 34.54a.62.62 0 0 1-.19 0 .89.89 0 0 1-.69-1.07 1 1 0 0 1 .4-.56.9.9 0 0 1 1.24.27.91.91 0 0 1 .12.68.87.87 0 0 1-.4.56.82.82 0 0 1-.48.12zm0-1.49a.62.62 0 0 0-.32.09.6.6 0 0 0-.26.38.56.56 0 0 0 .08.45.62.62 0 0 0 .37.26.63.63 0 0 0 .45-.08.57.57 0 0 0 .26-.38.53.53 0 0 0-.08-.44.58.58 0 0 0-.5-.28zM131.3 44.4h-.19a.85.85 0 0 1-.56-.39.87.87 0 0 1-.12-.68.9.9 0 1 1 1.75.39.87.87 0 0 1-.4.56.9.9 0 0 1-.48.12zm0-1.49a.62.62 0 0 0-.3.09.64.64 0 0 0-.26.38.57.57 0 0 0 .08.44.62.62 0 0 0 .37.27.63.63 0 0 0 .45-.08.57.57 0 0 0 .26-.38.56.56 0 0 0-.08-.45.59.59 0 0 0-.37-.26zM116 84.2a.16.16 0 0 1-.07-.29l10.79-5.54a.16.16 0 0 1 .21.07.14.14 0 0 1-.07.2l-10.76 5.54z" fill="#033b55" stroke="#033b55" stroke-miterlimit="10" stroke-width=".709"/><path d="M115.28 85.33a.9.9 0 0 1-.87-.66 1 1 0 0 1 .08-.68.87.87 0 0 1 .55-.42.9.9 0 0 1 1.1.62 1 1 0 0 1-.08.69.87.87 0 0 1-.55.42zm0-1.49h-.15a.57.57 0 0 0-.36.28.59.59 0 0 0 .67.87.57.57 0 0 0 .36-.28.59.59 0 0 0-.52-.89zm-.19-.12zM127.51 79.05a.9.9 0 0 1-.24-1.76.89.89 0 0 1 1 1.31 1 1 0 0 1-.54.42 1 1 0 0 1-.22.03zm0-1.49a.47.47 0 0 0-.16 0 .6.6 0 0 0-.41.73.59.59 0 0 0 1.09.14.58.58 0 0 0-.22-.81.56.56 0 0 0-.3-.06z" fill="#033b55" stroke="#033b55" stroke-miterlimit="10" stroke-width=".709"/><path fill="#f9a858" d="M58.23 117.93v-7.28L51.92 107l-6.31 3.65v7.28l6.31 3.65 6.31-3.65zM64.54 128.87v-7.28l-6.31-3.65-6.31 3.65v7.28l6.31 3.64 6.31-3.64z"/><path d="M51.92 122.33a.75.75 0 0 1-.38-.1l-6.31-3.65a.74.74 0 0 1-.37-.65v-7.28a.77.77 0 0 1 .37-.66l6.31-3.64a.79.79 0 0 1 .76 0l6.31 3.65a.77.77 0 0 1 .37.66v7.28a.74.74 0 0 1-.37.65l-6.31 3.65a.75.75 0 0 1-.38.09zm-5.56-4.83l5.56 3.2 5.56-3.2v-6.42l-5.56-3.21-5.56 3.21zm11.87.43z" fill="#da7e27"/><path d="M51.92 114.48a.19.19 0 0 1-.1 0l-5.61-3.39a.18.18 0 0 1-.06-.26.19.19 0 0 1 .26-.07l5.51 3.34 6.21-3.59a.19.19 0 1 1 .19.33L52 114.45a.16.16 0 0 1-.08.03z" fill="#da7e27"/><path d="M51.92 121.79a.2.2 0 0 1-.19-.19v-7.31a.19.19 0 0 1 .38 0v7.31a.2.2 0 0 1-.19.19z" fill="#da7e27"/><path d="M58.23 133.27a.86.86 0 0 1-.38-.1l-6.31-3.65a.74.74 0 0 1-.37-.65v-7.28a.77.77 0 0 1 .37-.66l6.31-3.64a.79.79 0 0 1 .76 0l6.31 3.64a.77.77 0 0 1 .37.66v7.28a.74.74 0 0 1-.37.65l-6.31 3.65a.86.86 0 0 1-.38.1zm-5.56-4.83l5.56 3.2 5.55-3.2V122l-5.55-3.21-5.56 3.21zm11.87.43z" fill="#da7e27"/><path d="M58.23 125.42a.19.19 0 0 1-.1 0L52.52 122a.18.18 0 0 1-.06-.26.19.19 0 0 1 .26-.07l5.51 3.33 6.21-3.59a.19.19 0 0 1 .19.33l-6.31 3.64a.16.16 0 0 1-.09.04z" fill="#da7e27"/><path d="M58.23 132.72a.19.19 0 0 1-.19-.18v-7.31a.19.19 0 0 1 .38 0v7.31a.19.19 0 0 1-.19.18z" fill="#da7e27"/></svg>